<svg xmlns="http://www.w3.org/2000/svg" viewBox="0 0 408.18 313.46"><defs><style>.cls-1{fill:#fff;}.cls-2{fill:#ff3d1a;}.cls-3{fill:#e69143;}.cls-4{fill:#e5b14e;}.cls-5{fill:#109a70;}.cls-6{fill:#062f29;}.cls-7{fill:#026e61;}.cls-8{fill:#081714;opacity:0.64;}.cls-17,.cls-18,.cls-19,.cls-21,.cls-8,.cls-9{isolation:isolate;}.cls-28,.cls-9{fill:#fafafa;}.cls-9{opacity:0.92;}.cls-10{fill:#c2e2ae;}.cls-11{fill:#2d9d7d;}.cls-12{fill:#66bc84;}.cls-13{fill:#06332c;}.cls-14{fill:#88c770;}.cls-15{fill:#ddd;}.cls-16{fill:#044738;}.cls-17{fill:#e55b62;opacity:0.18;}.cls-18{fill:#cc912a;opacity:0.24;}.cls-19{fill:#707070;opacity:0.26;}.cls-20{fill:none;}.cls-21{opacity:0.1;}.cls-22{fill:#0a0e17;}.cls-23{fill:#283549;}.cls-24{fill:#f9c18f;}.cls-25{fill:#e2a36f;}.cls-26{fill:#0d3150;}.cls-27{fill:#4f4d63;}.cls-29{fill:#9aa2a5;}.cls-30{fill:#2880fb;}.cls-31{fill:#c8c8cc;}.cls-32{fill:#e50c40;}.cls-33{fill:#1f71cc;}</style></defs><g id="Calque_2" data-name="Calque 2"><g id="Calque_1-2" data-name="Calque 1"><g id="Groupe_1241" data-name="Groupe 1241"><g id="Groupe_1229" data-name="Groupe 1229"><path id="Tracé_2693-2" data-name="Tracé 2693-2" class="cls-1" d="M273.67,265.58c74.29,0,134.51,10.72,134.51,23.94S348,313.46,273.67,313.46s-134.51-10.72-134.51-23.94S199.38,265.58,273.67,265.58Z"/><path id="Tracé_2696" data-name="Tracé 2696" class="cls-2" d="M267.33,283.87c27.32,0,49.47,2.44,49.47,5.45s-22.15,5.45-49.47,5.45-49.48-2.44-49.48-5.45S240,283.87,267.33,283.87Z"/><g id="Groupe_1228" data-name="Groupe 1228"><g id="Groupe_1223" data-name="Groupe 1223"><rect id="Rectangle_682" data-name="Rectangle 682" class="cls-3" x="169.54" y="77.57" width="203.77" height="8.04"/><g id="Groupe_1191" data-name="Groupe 1191"><path id="Tracé_2616" data-name="Tracé 2616" class="cls-4" d="M357.72,54.46c0,14.75-8.47,22.63-8.47,22.63s-3.2.17-7.69.32c-8.08.28-20.33.52-25.78-.32-8.46-1.3-10.39-23.56-10.39-23.56l20.23.36Z"/><g id="Groupe_1182" data-name="Groupe 1182"><path id="Tracé_2617" data-name="Tracé 2617" class="cls-5" d="M312.8,53.66l-3.58.22-.9.06-2.86.19s-9.63-16-8.14-24.18S307.9,38.88,312.8,53.66Z"/><g id="Groupe_1181" data-name="Groupe 1181"><path id="Tracé_2618" data-name="Tracé 2618" class="cls-6" d="M309.22,53.88l-.9.06c-1.48-3.78-5.71-14.37-8.4-18.84a.43.43,0,1,1,.73-.47l0,0C303.44,39.29,307.83,50.3,309.22,53.88Z"/></g></g><g id="Groupe_1184" data-name="Groupe 1184"><path id="Tracé_2619" data-name="Tracé 2619" class="cls-7" d="M323.77,54.13l-5.44-.23-.87,0-4.66-.2s.62-21.69,7-36.34S328.53-.62,331.56.09,323.77,54.13,323.77,54.13Z"/><g id="Groupe_1183" data-name="Groupe 1183"><path id="Tracé_2620" data-name="Tracé 2620" class="cls-6" d="M328.48,7.6C323.15,18,320,41.32,318.68,51.28c-.14,1.12-.26,2-.35,2.61l-.86,0c.1-.74.22-1.69.36-2.7,1.34-10,4.48-33.4,9.88-43.95a.43.43,0,0,1,.77.39Z"/></g></g><g id="Groupe_1186" data-name="Groupe 1186"><path id="Tracé_2621" data-name="Tracé 2621" class="cls-5" d="M342.65,30.05h0c0,.33,0,.67-.09,1,0,.08,0,.16,0,.24s0,.28,0,.42a199.25,199.25,0,0,1-3.17,22.42l-4.49-.09H334L329.06,54s1.39-22.16,3-33.13,4.08-19.45,7.83-19.45C343.51,1.38,343.53,17.84,342.65,30.05Z"/><g id="Groupe_1185" data-name="Groupe 1185"><path id="Tracé_2622" data-name="Tracé 2622" class="cls-6" d="M339.1,9.11c-.39,9-3.4,37.87-4.24,45L334,54c.75-6.59,3.82-35.32,4.24-45a.43.43,0,0,1,.45-.41.42.42,0,0,1,.41.44Z"/></g></g><g id="Groupe_1188" data-name="Groupe 1188"><path id="Tracé_2623" data-name="Tracé 2623" class="cls-7" d="M353.54,29.46c-.53,3.1-1.1,6-1.65,8.36-1.25,5.38-2.59,9.76-3.56,12.65-.81,2.44-1.37,3.8-1.37,3.8l-2.59,0-.87,0-2.12,0S342,42.7,342.55,31.3c0-.08,0-.16,0-.25,0-.32.06-.66.09-1h0c1.11-11.13,9.63-23.88,12-23.27C356.51,7.26,355.26,19.36,353.54,29.46Z"/><g id="Groupe_1187" data-name="Groupe 1187"><path id="Tracé_2624" data-name="Tracé 2624" class="cls-6" d="M354.42,9.33c-1.13,1.62-6.09,15.76-7,24.18-.79,7-2.47,17.4-3,20.72l-.87,0c.53-3.21,2.25-13.73,3-20.8.94-8.52,6-22.9,7.16-24.57a.44.44,0,0,1,.6-.11A.44.44,0,0,1,354.42,9.33Z"/></g></g><g id="Groupe_1190" data-name="Groupe 1190"><path id="Tracé_2625" data-name="Tracé 2625" class="cls-5" d="M359.39,38.19a60.32,60.32,0,0,1-5.6,16.2L351,54.33l-.88,0-1.61,0s-.13-1.51-.14-3.81c0-4.08.36-10.67,2.49-16.21a20.7,20.7,0,0,1,2.72-4.8c4.8-6.56,12.88-11.55,13.93-10.59C368.78,20.05,361.43,28.35,359.39,38.19Z"/><g id="Groupe_1189" data-name="Groupe 1189"><path id="Tracé_2626" data-name="Tracé 2626" class="cls-6" d="M366.08,21.51c-.09.09-9.07,8.17-10.65,13.26-1,3.18-2.43,10-3.49,15.06-.48,2.28-.78,3.66-1,4.51l-.88,0c.23-1.06.61-2.83,1-4.65,1.07-5,2.53-11.92,3.54-15.14,1.64-5.32,10.51-13.31,10.89-13.64a.43.43,0,0,1,.6,0,.42.42,0,0,1,0,.6Z"/></g></g><path id="Tracé_2627" data-name="Tracé 2627" class="cls-8" d="M357.72,54.46c0,14.75-8.47,22.63-8.47,22.63s-3.2.17-7.69.32c-3.76-7.45-12.5-19.06-15.94-23.53Z"/></g><path id="Tracé_2628" data-name="Tracé 2628" class="cls-9" d="M225.85,54.68l-.38.1c-.59.14-1.85.44-3.64.75l-.78.14c-.92.14-1.94.29-3.07.43-.62.08-1.27.16-1.95.22-1.09.11-2.24.2-3.45.28-1.72.1-3.57.14-5.49.13-1.06,0-2.09,0-3.11-.1-2.32-.09-4.51-.26-6.5-.47l-.68-.07c-1.33-.13-2.57-.29-3.67-.44H193c-3.49-.48-5.66-1-5.66-1a42.56,42.56,0,0,1,5.49-1.18.65.65,0,0,1,.19,0c1.24-.2,2.65-.39,4.22-.55l1.26-.11a76.15,76.15,0,0,1,7.85-.25h.69c1.57,0,3,.1,4.44.18,1.61.11,3.09.22,4.44.36.73.06,1.42.14,2.06.23,1.39.15,2.61.34,3.64.52l.61.09c1.76.3,2.89.57,3.34.68Z"/><path id="Tracé_2629" data-name="Tracé 2629" class="cls-10" d="M223.22,73c-2,3.59-7.15,5-13.4,5.21a76.57,76.57,0,0,1-13.09-1c-11.35-1.72-9.23-22.57-9.23-22.57a101,101,0,0,0,28.34,1.71,51.56,51.56,0,0,0,9.94-1.71S226.54,67.1,223.22,73Z"/><path id="Tracé_2630" data-name="Tracé 2630" class="cls-11" d="M195.29,55.63h0l-.1,0v0c-1.16-.16-2.17-.32-3-.45l-.63-.11c-1.29-.23-2-.39-2-.39-1.44-3-4.38-9.09-5.66-12.37C182.1,37.85,183,31.1,183,31.1s4.46,1.16,8.36,8.62a36.5,36.5,0,0,1,3.49,11v.05c.16,1,.28,1.93.35,2.69C195.29,54.81,195.29,55.63,195.29,55.63Z"/><path id="Tracé_2631" data-name="Tracé 2631" class="cls-12" d="M203.94,38.72v0c-.15.89-.31,1.8-.47,2.68a108.07,108.07,0,0,1-2.81,11.35c-.43,1.45-.81,2.63-1.06,3.37l-.68-.07c-.58-.05-1.13-.13-1.66-.18l-.58-.07-1.43-.19h-.1v0c0-.57-.11-1.29-.17-2.14s-.11-1.73-.15-2.72v-.05a60.06,60.06,0,0,1,.47-11.13c1.23-7.56,8.3-16.09,9.61-15.52C206.05,24.58,205.17,31.62,203.94,38.72Z"/><path id="Tracé_2632" data-name="Tracé 2632" class="cls-11" d="M215.76,34.89c-.15.43-.31.88-.46,1.34-.57,1.64-1.16,3.36-1.7,5.08a46.24,46.24,0,0,1-1.69,4.42h0c-1.08,2.46-2.31,4.83-3.42,6.81-1,1.75-1.84,3.19-2.41,4.08-1.28,0-2.53-.13-3.71-.21l-.59-.05-2.19-.2-.68-.07a28.89,28.89,0,0,1,.48-3.19,83.59,83.59,0,0,1,4.54-14.15v0a55.33,55.33,0,0,1,4.14-8.34c.39-.61.8-1.19,1.22-1.73a18.57,18.57,0,0,1,4.69-4.5c.19-.11.36-.22.53-.3,1.54-.82,2.8-.82,3.37.19C218.8,25.66,217.47,29.85,215.76,34.89Z"/><path id="Tracé_2633" data-name="Tracé 2633" class="cls-12" d="M217.32,53.32c0,.56,0,1.08,0,1.55v0c0,.45,0,.85,0,1.19l-.06,0-1.89.2-.93.1-.61,0-1.91.14c-.25-.86-.62-2.19-1.06-3.86-.52-2-1.13-4.34-1.71-7h0c-.55-2.42-1.08-5.06-1.54-7.73-.11-.66-.21-1.31-.31-2h0c-.05-.33-.1-.66-.14-1-.3-2.14-.51-4.29-.63-6.36-.4-7.09.34-13.14,3.2-13.64,3.45-.59,6.23,6.11,7.21,15.18.18,1.7.3,3.51.35,5.36C217.4,42.58,217.36,49.19,217.32,53.32Z"/><path id="Tracé_2634" data-name="Tracé 2634" class="cls-11" d="M223.72,40.47a90.16,90.16,0,0,1-1.3,9.67c-.3,1.5-.59,2.78-.86,3.8-.15.62-.31,1.15-.43,1.59l-.79.14c-.76.12-1.62.25-2.54.36l-.53.07-.06,0-1.89.2c0-.81-.06-1.85-.07-3.22,0-2.6.05-6.34.25-11.66a62.58,62.58,0,0,1,1.39-11.24c1.59-7.1,4.14-10.55,5.62-10.15C224.62,20.63,224.59,29.82,223.72,40.47Z"/><path id="Tracé_2635" data-name="Tracé 2635" class="cls-12" d="M234.4,43a125.47,125.47,0,0,1-9.49,11.59l-.15.16c-.4.09-1.12.27-2.13.47l-.73.14-.77.13-.79.14c.19-.62.39-1.23.61-1.82.45-1.28.94-2.51,1.47-3.7,4.68-10.59,11.92-17.86,13.56-17.7C238,32.64,238.44,37.13,234.4,43Z"/><g id="Groupe_1192" data-name="Groupe 1192"><path id="Tracé_2636" data-name="Tracé 2636" class="cls-13" d="M263.81,55.13a.57.57,0,0,1-.57-.51c0-.19-2.25-19.51-3.67-28.37a.57.57,0,0,1,.47-.65.58.58,0,0,1,.67.47c1.43,8.89,3.66,28.23,3.68,28.42a.57.57,0,0,1-.5.63h-.08Z"/></g><g id="Groupe_1193" data-name="Groupe 1193"><path id="Tracé_2637" data-name="Tracé 2637" class="cls-13" d="M255.47,55.42a.59.59,0,0,1-.55-.41c0-.12-3.89-12.54-5.79-17.8a.57.57,0,0,1,.33-.73h0a.58.58,0,0,1,.74.35h0C252.13,42.1,256,54.55,256,54.67a.58.58,0,0,1-.39.72h0A.47.47,0,0,1,255.47,55.42Z"/></g><g id="Groupe_1194" data-name="Groupe 1194"><path id="Tracé_2638" data-name="Tracé 2638" class="cls-13" d="M270.24,55h-.06a.57.57,0,0,1-.52-.63h0c0-.14,1.61-15.09,4.05-24.07a.58.58,0,0,1,1.13.25.09.09,0,0,0,0,0c-2.42,8.89-4,23.74-4,23.9A.57.57,0,0,1,270.24,55Z"/></g><path id="Tracé_2639" data-name="Tracé 2639" class="cls-14" d="M260.35,27.51s5.41-14.12,3.46-15.53-3.67,7.22-3.67,7.22-2.55-11-4.67-11.34,1.64,12.4,1.64,12.4-4.9-4.8-6.5-3.14S260.35,27.51,260.35,27.51Z"/><path id="Tracé_2640" data-name="Tracé 2640" class="cls-14" d="M250.46,39.77s4.07-14,2.11-14.53-3.83,7.78-4,7.26,0-11.47-.87-14-2.63-1.66-2.18,4a39.92,39.92,0,0,0,2.18,10.13s-3.57-4.59-4.81-2.3S250.46,39.77,250.46,39.77Z"/><path id="Tracé_2641" data-name="Tracé 2641" class="cls-14" d="M263.09,48.48c-.13.4-5.5-10.08-7.62-8.12s8.34,12.74,8.34,12.74,7.87-10.2,7.44-13S266.49,38.11,263.09,48.48Z"/><path id="Tracé_2642" data-name="Tracé 2642" class="cls-14" d="M253.1,28.21c-1.43,1.94,6.18,10.88,9.11,13.06,0,0,3.55-5.46,4.56-9.53s1.88-8.42,0-8.4-5.28,12.28-5.28,12.28S254.73,26,253.1,28.21Z"/><path id="Tracé_2643" data-name="Tracé 2643" class="cls-14" d="M256.54,55.68s3.71-11.15,1.35-11.32-3.65,6.53-3.65,6.53-6.22-3-6.51,0S256.54,55.68,256.54,55.68Z"/><path id="Tracé_2644" data-name="Tracé 2644" class="cls-14" d="M270.65,50.89s8.47-3.15,7.8-4.47-7.8,1.4-7.8,1.4S268,39.16,265.19,41,270.65,50.89,270.65,50.89Z"/><path id="Tracé_2645" data-name="Tracé 2645" class="cls-14" d="M273.16,35.33s9.11-2.66,8.11-7.07-6.4,4.1-6.4,4.1,4.32-9.8,1.54-10.66-3.08,10.05-3.08,10.05-2.38-5.65-4.58-4.19S273.16,35.33,273.16,35.33Z"/><path id="Tracé_2646" data-name="Tracé 2646" class="cls-15" d="M285.73,69.27c-1.37,5-3.35,7.4-12.43,8.13-.7.06-1.45.1-2.25.14-11,.52-16.34-1.19-18.38-4.25s-3-18.38-3-18.38l27.72-.69,9.44-.25S287.21,63.91,285.73,69.27Z"/><g id="Groupe_1195" data-name="Groupe 1195"><path id="Tracé_2647" data-name="Tracé 2647" class="cls-16" d="M192.84,55.18l-.63-.11c-.89-3.76-3.59-14.29-6.67-19.13a.28.28,0,0,1,.1-.39.3.3,0,0,1,.39.08C189.27,40.72,192,51.59,192.84,55.18Z"/></g><g id="Groupe_1196" data-name="Groupe 1196"><path id="Tracé_2648" data-name="Tracé 2648" class="cls-16" d="M204,28.36c-4.29,7.11-5.78,23.87-6.07,27.55l-.58-.07c.29-3.76,1.74-20.47,6.16-27.77a.29.29,0,0,1,.4-.1A.29.29,0,0,1,204,28.36Z"/></g><g id="Groupe_1197" data-name="Groupe 1197"><path id="Tracé_2649" data-name="Tracé 2649" class="cls-16" d="M212.39,33.16q-.84,1.35-1.62,2.85c-3.77,7.19-6.54,16.41-7.7,20.4-.19,0-.39,0-.59,0,1.19-4.07,4.13-13.93,8.15-21.35.41-.75.84-1.49,1.26-2.17a.3.3,0,0,1,.4-.09.28.28,0,0,1,.11.38Z"/></g><g id="Groupe_1198" data-name="Groupe 1198"><path id="Tracé_2650" data-name="Tracé 2650" class="cls-16" d="M214.39,56.42l-.6,0c-.13-3.52-.61-12-1.31-20.22h0c-.36-4.33-.8-8.6-1.3-12.08-.22-1.53-.44-2.92-.68-4.07a.29.29,0,0,1,.21-.34h0a.28.28,0,0,1,.33.22c.22,1.08.44,2.4.65,3.9.45,3.12.87,7,1.23,11h0C213.72,43.41,214.27,52.55,214.39,56.42Z"/></g><g id="Groupe_1199" data-name="Groupe 1199"><path id="Tracé_2651" data-name="Tracé 2651" class="cls-16" d="M221.83,25.87c-2.36,5.06-3.46,21.67-3.93,28.78,0,.54-.07,1-.09,1.38l-.54.07-.05,0c0-.36.05-.77.08-1.21v0c0-.09,0-.17,0-.26.48-7.14,1.58-23.83,4-29a.28.28,0,0,1,.38-.13h0a.28.28,0,0,1,.15.36Z"/></g><g id="Groupe_1200" data-name="Groupe 1200"><path id="Tracé_2652" data-name="Tracé 2652" class="cls-16" d="M234.42,37.36c-4.49,4.29-9.81,14.08-11.79,17.89l-.72.14c.15-.3.34-.66.58-1.1.66-1.28,1.73-3.26,3-5.47,2.26-3.86,5.55-9.06,8.52-11.88a.29.29,0,0,1,.4.41Z"/></g><path id="Tracé_2653" data-name="Tracé 2653" class="cls-17" d="M223.22,73c-2,3.59-7.15,5-13.4,5.21,3.56-7.3,5.33-17.09,6-21.86a51.56,51.56,0,0,0,9.94-1.71S226.54,67.1,223.22,73Z"/><path id="Tracé_2654" data-name="Tracé 2654" class="cls-18" d="M285.73,69.27c-1.37,5-3.35,7.4-12.43,8.13,3.69-7.88,4.07-18.23,4.09-23.18l9.44-.24S287.21,63.91,285.73,69.27Z"/><rect id="Rectangle_1076" data-name="Rectangle 1076" class="cls-19" x="169.54" y="85.35" width="203.77" height="3.01"/></g></g><g id="Tracé_2697" data-name="Tracé 2697"><path class="cls-20" d="M271.41,269.69c62.86,0,113.81,8.91,113.81,19.9s-51,19.9-113.81,19.9-113.81-8.91-113.81-19.9S208.55,269.69,271.41,269.69Z"/><path class="cls-3" d="M271.41,271.1c-15.33,0-30.2.53-44.2,1.56-13.5,1-25.63,2.43-36,4.25-5.11.89-9.75,1.87-13.78,2.92a79.23,79.23,0,0,0-10.31,3.32,24,24,0,0,0-6.26,3.5,3.28,3.28,0,0,0,0,5.88,24.25,24.25,0,0,0,6.26,3.51,79.35,79.35,0,0,0,10.31,3.31c4,1,8.67,2,13.78,2.92,10.41,1.82,22.54,3.25,36,4.25,14,1,28.87,1.56,44.2,1.56s30.2-.52,44.2-1.56c13.5-1,25.63-2.43,36-4.25,5.11-.89,9.75-1.87,13.78-2.92A79.35,79.35,0,0,0,375.74,296a24.25,24.25,0,0,0,6.26-3.51,3.28,3.28,0,0,0,0-5.88,24,24,0,0,0-6.26-3.5,79.23,79.23,0,0,0-10.31-3.32c-4-1.05-8.67-2-13.78-2.92-10.41-1.82-22.54-3.25-36-4.25-14-1-28.87-1.56-44.2-1.56m0-1.41c62.86,0,113.81,8.91,113.81,19.9s-51,19.9-113.81,19.9-113.81-8.91-113.81-19.9S208.55,269.69,271.41,269.69Z"/></g></g></g><g id="Groupe_2131" data-name="Groupe 2131"><ellipse id="Ellipse_328" data-name="Ellipse 328" class="cls-21" cx="35.69" cy="306.07" rx="32.16" ry="7.27"/><g id="Groupe_1242" data-name="Groupe 1242"><path id="Tracé_2553" data-name="Tracé 2553" class="cls-22" d="M152.36,270.66c-.09,2.09-.26,4.28-.26,6.47a2.42,2.42,0,0,0,2.23,2.58h.23c2.2.08,4.41-.11,6.62-.2a17.69,17.69,0,0,1,2-.16c2.71.24,5.42.64,8.13.78,3.25.16,6.51.11,9.76.14,1.32,0,2.73.19,3.23-1.53.38-1.32-.12-2.09-2.22-3.09-1-.48-2.08-.8-3.13-1.19-3.42-1.27-6.84-2.55-10.27-3.8a4.88,4.88,0,0,0-1.46-.31q-6.87-.08-13.72-.09A5.05,5.05,0,0,0,152.36,270.66Z"/><path id="Tracé_2554" data-name="Tracé 2554" class="cls-22" d="M77.93,280.59h20.3c-.75-3.62-3.53-5.38-5.93-7.11-4.59-3.28-9.56-2.69-14.49-.37A11,11,0,0,0,77.93,280.59Z"/><path id="Tracé_2555" data-name="Tracé 2555" class="cls-23" d="M99.68,139.07c-.47,4.29-.83,8.3-1.37,12.3q-2.57,19.15-5.24,38.28c-.95,6.73-1.85,13.48-3.14,20.14-1.42,7.37-3.36,14.63-4.9,22q-3.77,18-7.31,36.08c-1,5-.65,5.48,4.5,5.33,3.12-.08,6.23-.55,9-.81,4.54-20.08,10.72-39.19,16.23-58.48,3.17-11.12,5.65-22.42,8.44-33.64q1.83-7.38,3.67-14.77c.17-.67.42-1.32.79-2.46.54,1,1,1.65,1.21,2.32,6.62,16.48,13.33,32.93,19.72,49.49,1.36,3.53,1.56,7.51,2.19,11.3q3.75,22.37,7.43,44.73a16.93,16.93,0,0,0,.55,1.88c5.79.45,11.3-.92,16.86-1.64-4.52-19.41-6.81-38.86-10.3-58.1-.88-4.88-2.47-9.62-3.66-14.44q-6.37-25.7-12.72-51.41c-.33-1.34-.53-3.19-1.46-3.81A13.52,13.52,0,0,0,134,141c-8.53-.68-17.09-1-25.64-1.46Z"/><path id="Tracé_2556" data-name="Tracé 2556" class="cls-24" d="M171.81,149.4l-9.92-2.4c.2,1.53.26,2.7.5,3.84,1.3,6,2.54,12.12,4,18.13a5.17,5.17,0,0,1-1.25,5.3c-2.56,2.65-5.08,6.14-3.26,9,1.19,1.88,3.84,4.2,5.19,6s3.73.28,4.62-1.58a31.36,31.36,0,0,0,2.79-16.88c-.62-6-1.42-11.89-2.14-17.84C172.21,151.86,172,150.77,171.81,149.4Z"/><path id="Tracé_2558" data-name="Tracé 2558" class="cls-25" d="M148.11,35.79c-.91,2.57-1.88,5.12-2.69,7.72-.88,2.82-2.51,4.48-5.67,4.38a28.87,28.87,0,0,0-4.26.31,3.27,3.27,0,0,0-2.68,5c1.9,3.69,3.84,7.37,5.92,11a8.93,8.93,0,0,0,2.44,2,1.51,1.51,0,0,0,.58.18c2.73.78,5.51,2.33,8.17,2.13s5.23-2.06,7.79-3.3c3.92-1.9,8.21-7.36,4.9-10.11C158.39,51.59,152.55,47,151,41.79c-.6-2-1.5-3.95-2.26-5.92Z"/><path id="Tracé_2559" data-name="Tracé 2559" class="cls-26" d="M99.2,140.94c14.13,2.22,27.81,4.12,41.89,4.06.63-5.54,1.19-10.77,1.84-16a21.75,21.75,0,0,1,1-4.43c2-5.66,4-11.29,6-16.92a12.13,12.13,0,0,1,1.13-2.49c4.22-6.45,8-13.18,13.06-19.11,3.28-3.88,6.38-7.91,9.53-11.91.8-1,1.47-2.14,2.41-3.53L163.73,56.55a6.91,6.91,0,0,0-1,1.66A13.76,13.76,0,0,1,161.41,61a9.93,9.93,0,0,1-13.89,2,7.91,7.91,0,0,1-.88-.75c-3.61-3.29-5.57-7.71-7.91-11.86-.39-.7-1.34-1.28-1.61-1.88a6.32,6.32,0,0,0-1.12-.43c-6.29,1.24-13.2,2.54-18.94,5.64-1.26.68-.48,1.31-.83,2.74-4.91,19.57-11,38.87-14.48,58.79-.8,4.59-1.1,9.26-1.56,13.9C99.81,133,99.54,136.83,99.2,140.94Z"/><path id="Tracé_2560" data-name="Tracé 2560" class="cls-24" d="M147.28,28.27c-.39-.14-.67-.23-.93-.34-2.17-.88-3.19-.34-3.59,1.94a7.13,7.13,0,0,0,4.3,7.7c1.4,3.39,2.79,6.65,4.09,10a6.9,6.9,0,0,0,4.35,4.41,24.58,24.58,0,0,0,6.79,1.29c3.9,0,6.43-2.64,8.08-5.72a79.82,79.82,0,0,0,6-13.31,19.52,19.52,0,0,0-2.26-16.68c-4-6.48-11.42-8-17.75-3.65-4.14,2.81-6.59,6.84-8.15,11.47C147.86,26.28,147.59,27.25,147.28,28.27Z"/><path id="Tracé_2561" data-name="Tracé 2561" class="cls-22" d="M183.06,18.55c-6.37-3.63-11.87-7.67-18.69-9a26.45,26.45,0,0,0-13.24.89c-3.3,1-5.29,3.77-6,7.12a60.62,60.62,0,0,0-1,7.82,4.73,4.73,0,0,0,.62,2.6,15.81,15.81,0,0,1,2,4.34,2.55,2.55,0,0,0,1.94,1.49c.63,0,1.44-.92,1.83-1.62a39.52,39.52,0,0,1,7.19-9.61,5.91,5.91,0,0,1,3.65-1.15c4.21-.08,8.24,1.06,12.22,2.35a3.11,3.11,0,0,1,2.38,3.4c0,1.39.14,2.78.22,4.27a2.11,2.11,0,0,0,2.2-1.9C179.28,25.65,180.36,21.87,183.06,18.55Z"/><path id="Tracé_2563" data-name="Tracé 2563" class="cls-22" d="M51.86,295.84a14.31,14.31,0,0,1-2.6,8.05c-2.83,3.82-7.1,3.77-9.92-.07-3.35-4.58-3.32-12.74.06-17.25,2.85-3.8,7.11-3.76,9.93.09A15.79,15.79,0,0,1,51.86,295.84Z"/><path id="Tracé_2564" data-name="Tracé 2564" class="cls-27" d="M233.46,300.43a11.55,11.55,0,0,1,2.17-.57q20.1-.94,40.21-1.83c.6,0,1.21-.12,1.82-.11,2.39,0,4.81,2.75,4.41,5.1a2.07,2.07,0,0,1-1.08,1.27,5,5,0,0,1-1.81.16L239.52,306C235.22,306.15,233.51,304.66,233.46,300.43Z"/><path id="Tracé_2565" data-name="Tracé 2565" class="cls-28" d="M.82,278.29c.32-5.47.3-11,1.09-16.39A56.93,56.93,0,0,1,5.38,250c1.9-5,6.38-7,11.13-8.64,9.86-3.33,16.56,3.1,20.38,9.3,3.21,5.21,5.25,11,7.31,16.71,3.31,9.26,4.4,18.95,5.62,28.6.54,4.29-.2,5.71-4.2,7.32a21.51,21.51,0,0,1-7.07,1.6c-7.74.28-15.49.32-23.24.32a57,57,0,0,1-7.61-.61c-3.61-.48-5.31-2.06-5.65-5.66C1.39,292.06,1,285.19.43,278.32Z"/><path id="Tracé_2566" data-name="Tracé 2566" class="cls-29" d="M157.5,175.13l2.49-1.44,68.23,84.51-2.46,2.65Z"/><path id="Tracé_2567" data-name="Tracé 2567" class="cls-29" d="M278.35,300.44,235.15,302c-.18-3.12,0-3.47,2.51-4,3.47-.81,7-1.52,10.45-2.29.59-.13,1.15-.35,1.85-.55a7.46,7.46,0,0,0-2.1-5.79c-2-2.12-3.89-4.41-6.15-7l3.9-1.19,3.95,4.56c2.12,2.47,4.28,4.91,6.33,7.43a5.36,5.36,0,0,0,4.17,2.07c4.58.26,9.14.73,13.72,1.08C276.18,296.41,277.81,297.44,278.35,300.44Z"/><path id="Tracé_2568" data-name="Tracé 2568" class="cls-23" d="M11.19,280.36q.44,9.24.88,18.5c.07,1.41.17,2.83.13,4.25,0,1.58-.49,1.91-2.08,1.77l-.3-.06c-5-.66-6.06-1.65-6.21-6.75-.33-11.53-.46-23.07-.8-34.61-.09-3,1.26-5.48,2.45-8,.86-1.83,2.51-.84,3.8-.7s2.39.68,2.43,2.23c0,.41,0,.81,0,1.22q0,11.07,0,22.16Z"/><path id="Tracé_2569" data-name="Tracé 2569" class="cls-30" d="M23.92,281.12c5.42-.44,10.18-.82,14.94-1.22,1.93-.17,3.85-.43,5.78-.59,2.13-.18,2.58.1,2.88,2.14q.52,3.46.7,7c.08,2.12-.47,2.68-2.65,2.9q-9,.9-17.95,1.65c-2.15.19-2.58-.17-2.8-2.2C24.48,287.67,24.24,284.57,23.92,281.12Z"/><path id="Tracé_2570" data-name="Tracé 2570" class="cls-27" d="M222.29,259.26l4.62-3.58c.92,1,1.75,1.85,2.5,2.77,6,7.41,12,14.84,18.06,22.24.62.75,1.39,1.74,2.22,1.89,2,.38,2.63,1.63,3,3.47-1.33.36-2.63.62-3.86,1.07-2.58.94-4.54.1-6.16-1.94L223,260.38A11.35,11.35,0,0,1,222.29,259.26Z"/><path id="Tracé_2571" data-name="Tracé 2571" class="cls-23" d="M29.6,264.45c-1.12.05-2.24.12-3.36.15-2.4.06-2.73-.1-3.1-2.32a54.33,54.33,0,0,1-.89-7.52c-.09-3.53,1.68-5.79,4.71-6.6,3.77-1,7.4-.09,8.82,2.86a68.94,68.94,0,0,1,3.75,10.52c.53,1.81,0,2.26-2,2.46-2.63.26-5.28.39-7.91.58Z"/><path id="Tracé_2573" data-name="Tracé 2573" class="cls-23" d="M31.45,297.15c-.11,1.1-.93,1.54-2.08,1.52a2.14,2.14,0,0,1-2.11-2.15,1.89,1.89,0,0,1,1.86-1.93h.09A2.36,2.36,0,0,1,31.45,297.15Z"/><path id="Tracé_2574" data-name="Tracé 2574" class="cls-23" d="M48,294.76c-.07,1.77-.93,2.68-1.91,2.47a1.93,1.93,0,0,1-1.73-2.12v0c.09-1.15.78-2.09,1.94-1.82C47.06,293.44,47.63,294.41,48,294.76Z"/><path id="Tracé_2575" data-name="Tracé 2575" class="cls-22" d="M15,298.18a14.37,14.37,0,0,1-2.6,8.06c-2.83,3.81-7.1,3.76-9.93-.09-3.35-4.57-3.32-12.73.07-17.23,2.85-3.81,7.1-3.77,9.93.08A15.79,15.79,0,0,1,15,298.18Z"/><path id="Tracé_2576" data-name="Tracé 2576" class="cls-29" d="M11.3,296.88a11.53,11.53,0,0,1-2,6.66c-2,2.6-4.59,2.61-6.58.06-2.61-3.34-2.64-10.07,0-13.46,2-2.59,4.6-2.62,6.57-.05A11.34,11.34,0,0,1,11.3,296.88Z"/><path id="Tracé_2577" data-name="Tracé 2577" class="cls-31" d="M12,255.45l-4.73-1.31c.15-.94.29-1.77.46-2.84,2,.28,3.84.49,5.63.79a2.08,2.08,0,0,1,2,2.21q0,15,0,30.05c0,.18-.16.36-.3.67H11.6C11.49,275.07,11.82,265.32,12,255.45Z"/><path id="Tracé_2578" data-name="Tracé 2578" class="cls-31" d="M45,289l-16.7,1.54c-.33-2.22-.62-4.17-1-6.57L45,282.63Z"/><path id="Tracé_2579" data-name="Tracé 2579" class="cls-22" d="M13.64,245.68C17,241.16,27,239.87,31,243.28c-.12.12-.26.36-.37.34-4.19-.59-7.71,1.22-11.18,3.14C16.82,248.2,16.29,248.13,13.64,245.68Z"/><path id="Tracé_2580" data-name="Tracé 2580" class="cls-29" d="M132,139.44l-3.52,2c-2.31-1.9-4.44-3.77-6.7-5.47-4.77-3.59-10.22-4.21-16-3.45-6.36.83-10.2,4.4-12.81,10.25-4.34,9.73-5.7,20.08-7.1,30.39-2.11,15.57-3.81,31.22-7.06,46.61-2.12,10-5.54,19.72-11.61,28.23-1.82,2.56-3.46,5.16-6,7.25-4.37,3.67-9.43,5.14-14.91,5.41-2.94.14-11.13-1.33-14.06-1.6a2.92,2.92,0,0,1-2.9-2.65c-.31-2.2,1.08-3.44,3.25-2.93C40,255.19,52.24,255.61,58,250.5a45.38,45.38,0,0,0,8-10.29c6.39-10.43,8.55-22.25,10.58-34.05,2.2-12.8,3.93-25.65,5.52-38.54a123.62,123.62,0,0,1,6.37-26.88,18.85,18.85,0,0,1,8.33-10.17,21.28,21.28,0,0,1,6.58-2.2,29,29,0,0,1,12.4.16,21.25,21.25,0,0,1,11.93,6.76A59.92,59.92,0,0,0,132,139.44Z"/><path id="Tracé_2581" data-name="Tracé 2581" class="cls-27" d="M162.19,172.51c-3.35-4.21-6.65-8.46-10.08-12.61-1.24-1.5-1.88-2.82-1.19-4.89a10.44,10.44,0,0,0-2-10.28c-1.6-2-3.05-4.06-4.66-6a20.4,20.4,0,0,0-7-5.76,4.56,4.56,0,0,0-4.89.34c-2.59,1.75-5.19,3.49-7.77,5.25-.13.1-.15.36-.27.67l1.85,3.1a10.16,10.16,0,0,0-1.91,0c-3.45.87-3.88,2.44-2.59,4.94a6.37,6.37,0,0,0,5.4,3.86c2.54.2,5.08.44,7.59.79a4.44,4.44,0,0,1,2.44,1c1.77,1.79,3.36,3.74,5.09,5.7l-3.68,3.58c1.92,2.73,3.8,4.74,7.15,4.29a3.68,3.68,0,0,1,3.59,1.82c1,1.37,2.21,2.65,3.32,4l6.27,7.34,5.32-4.42C163.38,174.12,162.81,173.3,162.19,172.51Zm-17.85-22.34c-.84-1-1.72-2-2.48-3.09-1.86-2.63-4-4.66-7.59-4-1-1.49-1.86-2.82-2.75-4.15a4.91,4.91,0,0,1,.64-.79c3.29-2.55,4-2.6,6.94.38,2.42,2.46,4.66,5.1,6.87,7.75,1.65,2,1.55,4.4,1.63,6.73l-.67.34c-.86-1.05-1.73-2.1-2.59-3.16Z"/><path id="Tracé_2582" data-name="Tracé 2582" class="cls-32" d="M124.9,149.65a19.37,19.37,0,0,1,3.23-.68c3,.07,6.07.25,9.11.38,1.25.06,2.22.6,2.27,1.94s-1.09,1.67-2.08,1.78a23.5,23.5,0,0,1-10.2-.94C126.48,151.87,126,150.85,124.9,149.65Z"/><path id="Tracé_2583" data-name="Tracé 2583" class="cls-32" d="M145.86,168.23c-.32-.3-1.16-.75-1.42-1.42a1.47,1.47,0,0,1,.79-1.93,1.69,1.69,0,0,1,.44-.12,24.7,24.7,0,0,1,3.91-.55,2,2,0,0,1,2.1,2v.14c-.1,1.15-.91,1.43-1.93,1.49s-2,.2-3,.31Z"/><path id="Tracé_2584" data-name="Tracé 2584" class="cls-24" d="M112.7,119.75c3.71,3.44,7.53,6.76,11,10.38a11.82,11.82,0,0,1,2.33,4.89c1,3.49,3.93,5.16,6.55,6.92s5.85-.25,5.86-3.45v-2.66l2.58-.4c-.62-1.27-1.18-2.37-1.68-3.5a19.9,19.9,0,0,0-1.4-3.34,3.11,3.11,0,0,0-2.13-1c-4.12-.33-6.85-2.57-9-5.93-1.24-2-2.87-3.69-4.24-5.58a9.09,9.09,0,0,0-4.39-3.18l-5.54,5.58Z"/><path id="Tracé_2585" data-name="Tracé 2585" class="cls-33" d="M115,123.1l8-6.57L109.25,99.77l2.12-2.87c4.33-5.77,8.6-11.59,13-17.28a32.76,32.76,0,0,0,4.62-8.5,12.62,12.62,0,0,0,0-8.32,24.91,24.91,0,0,0-4.94-8.68,3.57,3.57,0,0,0-2.87-1.31,6.24,6.24,0,0,0-6.59,3.68c-5.38,10-10.95,19.92-16.45,29.87-1.38,2.49-2.76,5-4.11,7.47a9.16,9.16,0,0,0-1,2.23c-.85,3.57-.33,6.75,2.55,9.4,6.15,5.64,12.21,11.36,18.31,17A6.5,6.5,0,0,0,115,123.1Z"/><path id="Tracé_2586" data-name="Tracé 2586" class="cls-24" d="M167.08,189.25c2-.24,3.73-.83,4.49-3.13a29.93,29.93,0,0,1,1.63-3.19,11.88,11.88,0,0,0,.89-2.53,2.49,2.49,0,0,0-1.53-2.71c-1.38-.82-2.58-.14-3.65.65s-.78,1.77-.39,2.77c.18.47.39.93.57,1.4a3.89,3.89,0,0,1-1.07,4.42c-.53.53-1,1.12-1.49,1.68C166.71,188.83,166.9,189,167.08,189.25Z"/><path id="Tracé_2557" data-name="Tracé 2557" class="cls-1" d="M163.06,154.26l10.34-1.89c0-1.55.1-2.94,0-4.31-.61-6.86-1.13-13.74-2-20.58a52,52,0,0,1,.33-13.31c1.57-11.86,3.14-23.71,4.55-35.59.37-3.06,1.44-5.62-.65-8.43-.18-.24-.66-.82-1-1.24-.59.67-7.37,7.27-7.81,7.89A81.8,81.8,0,0,0,161,85.55a42.31,42.31,0,0,1-3.2,4.74,10,10,0,0,0-1.38,5.41c.38,10.73.59,21.48,1.12,32.21.15,3.09,1.1,6.16,1.76,9.23C160.49,142.69,161.73,148.22,163.06,154.26Z"/></g></g><ellipse id="Ellipse_329" data-name="Ellipse 329" class="cls-21" cx="139.06" cy="278.87" rx="62.02" ry="8.87"/></g></g></svg>