<svg id="Calque_1" data-name="Calque 1" xmlns="http://www.w3.org/2000/svg" viewBox="0 0 270.24 97.57"><defs><style>.cls-1{fill:#28cc8b;}.cls-2{fill:#4d4d4d;}</style></defs><path id="Tracé_378" data-name="Tracé 378" class="cls-1" d="M454.83,189.84A23.88,23.88,0,1,1,431,166h0a23.88,23.88,0,0,1,23.88,23.87Zm-22-16.38a16.48,16.48,0,1,0,14.52,18.24h0A16.49,16.49,0,0,0,432.81,173.46Z" transform="translate(-222.76 -116.43)"/><path id="Tracé_379" data-name="Tracé 379" class="cls-1" d="M493,194.75a18.1,18.1,0,1,1-18.1-18.1h0A18.11,18.11,0,0,1,493,194.75ZM474.9,183a11.73,11.73,0,1,0,11.73,11.73h0A11.73,11.73,0,0,0,474.91,183h0Z" transform="translate(-222.76 -116.43)"/><path id="Tracé_380" data-name="Tracé 380" class="cls-1" d="M434.17,176.47a14.09,14.09,0,0,0-16.1,11.69,1.56,1.56,0,1,0,3.08.49,11,11,0,0,1,12.52-9.09,1.57,1.57,0,0,0,1.8-1.3A1.55,1.55,0,0,0,434.17,176.47Z" transform="translate(-222.76 -116.43)"/><path id="Tracé_381" data-name="Tracé 381" class="cls-2" d="M248.57,171.1l-10.27,0-.06-40.45-15.47,0V120.57l41.17-.06,0,10.12-15.43,0Z" transform="translate(-222.76 -116.43)"/><path id="Tracé_382" data-name="Tracé 382" class="cls-2" d="M279.92,123a6,6,0,0,1-.51,2.5,6.52,6.52,0,0,1-3.5,3.41,6.73,6.73,0,0,1-5.14,0,6.48,6.48,0,0,1-2.09-1.37,6.4,6.4,0,0,1-1.4-2,6,6,0,0,1-.52-2.5,6.35,6.35,0,0,1,1.91-4.54,6.66,6.66,0,0,1,2.08-1.39,6.57,6.57,0,0,1,2.56-.51,6.88,6.88,0,0,1,2.57.5,7.19,7.19,0,0,1,2.1,1.37A6.25,6.25,0,0,1,279.92,123Zm-1.62,48-9.87,0-.06-37.78h9.87Z" transform="translate(-222.76 -116.43)"/><path id="Tracé_383" data-name="Tracé 383" class="cls-2" d="M323,166.23a18.52,18.52,0,0,1-1.54,7.48,19.32,19.32,0,0,1-4.21,6.1A20.12,20.12,0,0,1,311,184a19.21,19.21,0,0,1-7.63,1.52l-4.92-.05,0-9.64,4.85.07a11.06,11.06,0,0,0,3.91-.59,7.83,7.83,0,0,0,2.73-1.6,7.7,7.7,0,0,0,1.77-2.31,15.06,15.06,0,0,0,1.07-2.75,4.52,4.52,0,0,1-1.65,1.51,11.94,11.94,0,0,1-2.38.95,15.65,15.65,0,0,1-2.73.51c-.95.1-1.82.14-2.64.16a21.37,21.37,0,0,1-7.63-1.37,18.63,18.63,0,0,1-6.25-3.93,18,18,0,0,1-4.23-6.26,21.39,21.39,0,0,1-1.55-8.36,20.15,20.15,0,0,1,1.54-7.93,19.5,19.5,0,0,1,18.08-12.1,14.8,14.8,0,0,1,3.69.46,19.34,19.34,0,0,1,3.56,1.27,21.37,21.37,0,0,1,3.28,1.9,25.44,25.44,0,0,1,2.92,2.35l3.79-4.48h2.37Zm-9.9-14.45a10,10,0,0,0-.77-3.82,11.23,11.23,0,0,0-2.11-3.28,10.42,10.42,0,0,0-3.1-2.28,8.58,8.58,0,0,0-3.79-.86,10.42,10.42,0,0,0-3.79.68,8.71,8.71,0,0,0-3.09,2,9.2,9.2,0,0,0-2.06,3.22,11.93,11.93,0,0,0-.75,4.39,11.06,11.06,0,0,0,.76,4.25,9.49,9.49,0,0,0,2.08,3.22,8.9,8.9,0,0,0,3.08,2.05,9.91,9.91,0,0,0,3.8.72,8.46,8.46,0,0,0,3.79-.87,10.61,10.61,0,0,0,3.1-2.3,11.2,11.2,0,0,0,2.1-3.28A10,10,0,0,0,313.1,151.78Z" transform="translate(-222.76 -116.43)"/><path id="Tracé_384" data-name="Tracé 384" class="cls-2" d="M367.69,166.16a18.51,18.51,0,0,1-1.53,7.48,19.48,19.48,0,0,1-4.21,6.1,20.16,20.16,0,0,1-6.25,4.14,19,19,0,0,1-7.62,1.52l-4.93-.05v-9.64l4.84.07a11.11,11.11,0,0,0,3.92-.59,8.06,8.06,0,0,0,2.73-1.59,8.36,8.36,0,0,0,1.77-2.32,15,15,0,0,0,1.06-2.75,4.57,4.57,0,0,1-1.64,1.51,12,12,0,0,1-2.39,1,15.73,15.73,0,0,1-2.72.52c-1,.09-1.83.13-2.65.15a21.1,21.1,0,0,1-7.62-1.37,18.52,18.52,0,0,1-6.26-3.93A18.13,18.13,0,0,1,330,160.1a21.36,21.36,0,0,1-1.55-8.36,20,20,0,0,1,1.54-7.93A19.48,19.48,0,0,1,348,131.71a14.88,14.88,0,0,1,3.7.46,19.88,19.88,0,0,1,3.56,1.27,22.37,22.37,0,0,1,3.28,1.9,26.34,26.34,0,0,1,2.92,2.35l3.79-4.48h2.37Zm-9.9-14.45a9.85,9.85,0,0,0-.78-3.82,11,11,0,0,0-2.1-3.28,10.55,10.55,0,0,0-3.1-2.28,8.72,8.72,0,0,0-3.79-.86,10.51,10.51,0,0,0-3.8.68,8.76,8.76,0,0,0-3.08,2,9.15,9.15,0,0,0-2.06,3.22,12,12,0,0,0-.75,4.39,11,11,0,0,0,.76,4.25,9.64,9.64,0,0,0,2.08,3.22,8.9,8.9,0,0,0,3.08,2A9.9,9.9,0,0,0,348,162a8.47,8.47,0,0,0,3.8-.87,10.74,10.74,0,0,0,3.1-2.3,11.2,11.2,0,0,0,2.1-3.28A10,10,0,0,0,357.79,151.71Z" transform="translate(-222.76 -116.43)"/><path id="Tracé_385" data-name="Tracé 385" class="cls-2" d="M386.65,122.87a6,6,0,0,1-.51,2.5,6.52,6.52,0,0,1-3.5,3.41,6.7,6.7,0,0,1-7.22-1.37,6.35,6.35,0,0,1-1.4-2,6.17,6.17,0,0,1-.53-2.5,6.35,6.35,0,0,1,1.91-4.54,6.77,6.77,0,0,1,2.08-1.39,6.43,6.43,0,0,1,2.56-.51,6.65,6.65,0,0,1,2.57.5,7,7,0,0,1,2.11,1.37,6.09,6.09,0,0,1,1.42,2A6.41,6.41,0,0,1,386.65,122.87Zm-1.61,48h-9.87l-.06-37.77,9.87,0Z" transform="translate(-222.76 -116.43)"/><g id="Groupe_39" data-name="Groupe 39"><g id="Groupe_38" data-name="Groupe 38"><g id="Groupe_37" data-name="Groupe 37"><g id="Groupe_36" data-name="Groupe 36"><path id="Tracé_386" data-name="Tracé 386" class="cls-2" d="M402.43,213.28h-2.34l-3.76-5.15a30.74,30.74,0,0,1-2.92,2.3,21.29,21.29,0,0,1-3.24,1.87,19.58,19.58,0,0,1-3.49,1.24,14.26,14.26,0,0,1-3.62.46,19.11,19.11,0,0,1-17.86-11.88,21.21,21.21,0,0,1,0-15.78,19.24,19.24,0,0,1,10.31-10.49,18.9,18.9,0,0,1,7.52-1.52,16.59,16.59,0,0,1,2.64.21,12.83,12.83,0,0,1,2.66.68,11.21,11.21,0,0,1,2.44,1.24,7.12,7.12,0,0,1,1.91,1.88l0-45.2,9.73,0ZM391.65,194a9.84,9.84,0,0,0-.77-3.82,11.14,11.14,0,0,0-2.08-3.28,10.12,10.12,0,0,0-3.07-2.28,8.54,8.54,0,0,0-3.74-.86,10,10,0,0,0-3.74.7,8.8,8.8,0,0,0-3,2,9.54,9.54,0,0,0-2,3.22,11.74,11.74,0,0,0-.73,4.31,10.55,10.55,0,0,0,.75,4,10.3,10.3,0,0,0,2.05,3.28,9.51,9.51,0,0,0,3,2.21,8.77,8.77,0,0,0,3.74.8,8.18,8.18,0,0,0,3.73-.87,10.18,10.18,0,0,0,3.06-2.3,10.91,10.91,0,0,0,2.07-3.28A9.67,9.67,0,0,0,391.65,194Z" transform="translate(-222.76 -116.43)"/></g></g><path id="Tracé_388" data-name="Tracé 388" class="cls-2" d="M402.35,169.79" transform="translate(-222.76 -116.43)"/></g></g></svg>