<svg xmlns="http://www.w3.org/2000/svg" viewBox="0 0 230.93 86.27"><defs><style>.cls-1{fill:#fff;}</style></defs><g id="Calque_2" data-name="Calque 2"><g id="Calque_1-2" data-name="Calque 1"><path id="Tracé_378" data-name="Tracé 378" class="cls-1" d="M187.52,53.55a26.71,26.71,0,1,1-31.93-20.18l.07,0h0A26.72,26.72,0,0,1,187.52,53.55Zm-28-12.5a18.34,18.34,0,1,0,20.28,16.32h0A18.42,18.42,0,0,0,159.5,41.05Z"/><path id="Tracé_379" data-name="Tracé 379" class="cls-1" d="M230.43,61.56a20.25,20.25,0,1,1-24.21-15.3h.06A20.26,20.26,0,0,1,230.43,61.56Zm-22.61-8.39a13.05,13.05,0,1,0,15.64,9.92h0a13.12,13.12,0,0,0-15.64-9.92Z"/><path id="Tracé_380" data-name="Tracé 380" class="cls-1" d="M164.23,45.36A15.73,15.73,0,0,0,148.48,61,1.75,1.75,0,1,0,152,61a12.24,12.24,0,0,1,12.25-12.18,1.74,1.74,0,0,0,.08-3.48Z"/><path id="Tracé_381" data-name="Tracé 381" class="cls-1" d="M18.22,38.38H11l0-28.38H0V2.91l29.07,0V10l-10.9,0Z"/><path id="Tracé_382" data-name="Tracé 382" class="cls-1" d="M40.35,4.62A4.08,4.08,0,0,1,40,6.38a4.55,4.55,0,0,1-2.47,2.39,4.73,4.73,0,0,1-3.62,0,4.66,4.66,0,0,1-1.48-1,4.58,4.58,0,0,1-1-1.43,4.41,4.41,0,0,1-.37-1.76,4.48,4.48,0,0,1,1.35-3.18,4.38,4.38,0,0,1,1.47-1,4.29,4.29,0,0,1,1.8-.36A4.54,4.54,0,0,1,37.5.46a5,5,0,0,1,1.49,1A4.35,4.35,0,0,1,40.35,4.62ZM39.21,38.35h-7l0-26.51h7Z"/><path id="Tracé_383" data-name="Tracé 383" class="cls-1" d="M70.76,35a12.78,12.78,0,0,1-1.08,5.24,13.7,13.7,0,0,1-3,4.29,14.25,14.25,0,0,1-4.41,2.9,13.6,13.6,0,0,1-5.38,1.07l-3.48,0V41.66l3.42.05a8.08,8.08,0,0,0,2.76-.42,5.55,5.55,0,0,0,3.18-2.74,11.12,11.12,0,0,0,.75-1.94,3,3,0,0,1-1.16,1.06,8.07,8.07,0,0,1-1.68.67,10.59,10.59,0,0,1-1.93.36c-.67.07-1.29.1-1.86.11a15,15,0,0,1-5.39-1,13.09,13.09,0,0,1-4.41-2.76,12.54,12.54,0,0,1-3-4.39A14.94,14.94,0,0,1,43,24.83a14,14,0,0,1,1.09-5.57,13.77,13.77,0,0,1,12.76-8.49,11,11,0,0,1,2.61.32A14.18,14.18,0,0,1,62,12a15.28,15.28,0,0,1,2.32,1.33A19.09,19.09,0,0,1,66.38,15l2.67-3.15h1.68Zm-7-10.15a6.87,6.87,0,0,0-.55-2.68,8.09,8.09,0,0,0-1.48-2.3,7.67,7.67,0,0,0-2.19-1.6,6.21,6.21,0,0,0-2.68-.6,7.43,7.43,0,0,0-2.68.48A6.2,6.2,0,0,0,52,19.5a6.35,6.35,0,0,0-1.45,2.26A8.33,8.33,0,0,0,50,24.84a7.61,7.61,0,0,0,.54,3,6.44,6.44,0,0,0,3.64,3.71,7,7,0,0,0,2.68.5,5.9,5.9,0,0,0,2.67-.61,7.44,7.44,0,0,0,2.19-1.61,8,8,0,0,0,1.49-2.3A7.14,7.14,0,0,0,63.78,24.81Z"/><path id="Tracé_384" data-name="Tracé 384" class="cls-1" d="M102.31,34.91a12.62,12.62,0,0,1-1.08,5.24,13.7,13.7,0,0,1-3,4.29,14.43,14.43,0,0,1-4.41,2.9,13.42,13.42,0,0,1-5.38,1.06l-3.48,0V41.6l3.42,0a7.84,7.84,0,0,0,2.76-.41,5.59,5.59,0,0,0,1.93-1.12,5.81,5.81,0,0,0,1.25-1.62,11.12,11.12,0,0,0,.75-1.94,3.11,3.11,0,0,1-1.16,1.06,8.41,8.41,0,0,1-1.68.67,10.43,10.43,0,0,1-1.93.36c-.67.07-1.29.1-1.86.11a15,15,0,0,1-5.39-1A13.09,13.09,0,0,1,78.66,35a12.77,12.77,0,0,1-3-4.39,15,15,0,0,1-1.1-5.87,14,14,0,0,1,1.09-5.57,13.76,13.76,0,0,1,12.76-8.49A11,11,0,0,1,91,11a15,15,0,0,1,2.51.89,16.24,16.24,0,0,1,2.32,1.34,19.09,19.09,0,0,1,2.06,1.65l2.68-3.15h1.67Zm-7-10.15a6.87,6.87,0,0,0-.55-2.68,8.09,8.09,0,0,0-1.48-2.3,7.67,7.67,0,0,0-2.19-1.6,6.24,6.24,0,0,0-2.68-.6,7.43,7.43,0,0,0-2.68.48,6.2,6.2,0,0,0-2.18,1.39,6.35,6.35,0,0,0-1.45,2.26,8.33,8.33,0,0,0-.53,3.08,7.65,7.65,0,0,0,.54,3A6.86,6.86,0,0,0,83.59,30a6.53,6.53,0,0,0,2.18,1.44,7.2,7.2,0,0,0,2.68.5,6,6,0,0,0,2.67-.62,7.1,7.1,0,0,0,2.19-1.61,7.78,7.78,0,0,0,1.49-2.3,7,7,0,0,0,.53-2.69Z"/><path id="Tracé_385" data-name="Tracé 385" class="cls-1" d="M115.7,4.52a4.3,4.3,0,0,1-.36,1.76,4.62,4.62,0,0,1-2.47,2.39,4.76,4.76,0,0,1-3.63,0,4.53,4.53,0,0,1-1.47-1,4.38,4.38,0,0,1-1-1.42,4.31,4.31,0,0,1-.37-1.76,4.46,4.46,0,0,1,1.35-3.19,4.77,4.77,0,0,1,1.46-1A4.71,4.71,0,0,1,111,0a5,5,0,0,1,1.82.35,4.84,4.84,0,0,1,1.48,1,4.37,4.37,0,0,1,1,1.44A4.48,4.48,0,0,1,115.7,4.52Zm-1.14,33.71h-7l0-26.51h7Z"/><g id="Groupe_39" data-name="Groupe 39"><g id="Groupe_38" data-name="Groupe 38"><g id="Groupe_37" data-name="Groupe 37"><g id="Groupe_36" data-name="Groupe 36"><path id="Tracé_386" data-name="Tracé 386" class="cls-1" d="M126.84,73.72h-1.65l-2.66-3.62a21.59,21.59,0,0,1-2.06,1.62A15.24,15.24,0,0,1,118.18,73a14.09,14.09,0,0,1-2.46.87,10.1,10.1,0,0,1-2.56.33,13.49,13.49,0,0,1-12.6-8.34,14.8,14.8,0,0,1,0-11.08,13.5,13.5,0,0,1,7.28-7.36,13.25,13.25,0,0,1,5.3-1.07,11.69,11.69,0,0,1,1.87.15,9.41,9.41,0,0,1,1.88.47,8.72,8.72,0,0,1,1.72.88,5,5,0,0,1,1.34,1.32V36.9h6.86Zm-7.61-13.5a6.87,6.87,0,0,0-.55-2.68,7.89,7.89,0,0,0-1.46-2.3,7.23,7.23,0,0,0-2.17-1.6,5.93,5.93,0,0,0-2.64-.6,6.81,6.81,0,0,0-2.64.5A6.09,6.09,0,0,0,107.62,55a6.71,6.71,0,0,0-1.44,2.26,8.17,8.17,0,0,0-.51,3,7.46,7.46,0,0,0,2,5.08,6.74,6.74,0,0,0,2.15,1.56,6.48,6.48,0,0,0,2.64.56,5.91,5.91,0,0,0,2.64-.61,7.57,7.57,0,0,0,2.16-1.61,7.91,7.91,0,0,0,1.45-2.3,6.84,6.84,0,0,0,.55-2.71Z"/></g></g><path id="Tracé_387" data-name="Tracé 387" class="cls-1" d="M119.9,37.46h6.88V11.72H119.9Z"/></g></g></g></g></svg>