<svg xmlns="http://www.w3.org/2000/svg" viewBox="0 0 680.81 437.19"><defs><style>.cls-1{fill:#2880fb;}.cls-2,.cls-4{fill:#3f3d56;}.cls-2{opacity:0.1;}.cls-2,.cls-20,.cls-21,.cls-22,.cls-27,.cls-30{isolation:isolate;}.cls-3{fill:#ffb8b8;}.cls-5{fill:#65617d;}.cls-6{fill:#111f59;}.cls-7{fill:#c0b4fe;}.cls-8{fill:#d9d2fe;}.cls-9{fill:#ffc1c7;}.cls-10{fill:#18287d;}.cls-11{fill:#555699;}.cls-12{fill:red;}.cls-13{fill:#c2d6ff;}.cls-14{fill:#ffcece;}.cls-15{fill:#28cc8b;}.cls-16{fill:#eef5f8;}.cls-17{fill:#3abba3;}.cls-18,.cls-59{fill:#2f2e41;}.cls-19,.cls-30{fill:#fff;}.cls-20{fill:#fa5959;}.cls-20,.cls-21,.cls-22{opacity:0.8;}.cls-21{fill:#fed253;}.cls-22{fill:#8ccf4d;}.cls-23{fill:#e0e1f3;}.cls-24{fill:#6fa3d9;}.cls-25{fill:#6c63ff;}.cls-26{fill:#f55f44;}.cls-27{opacity:0.1;}.cls-28{fill:#fda57d;}.cls-29{fill:#333;}.cls-30{opacity:0.6;}.cls-31{fill:#575a89;}.cls-32{fill:#13bc79;}.cls-33{fill:#e6e6e6;}.cls-34{fill:#72351c;}.cls-35{fill:#fdb797;}.cls-36,.cls-38{fill:none;stroke:#333;stroke-width:0.75px;}.cls-36,.cls-59{stroke-miterlimit:10;}.cls-37{fill:#858585;}.cls-38{stroke-linecap:round;stroke-linejoin:round;}.cls-39{fill:#341079;}.cls-40{fill:#4d499e;}.cls-41{fill:#6561ac;}.cls-42{fill:#2c3a64;}.cls-43{fill:#554c8a;}.cls-44{fill:#352952;}.cls-45{fill:#ffb27d;}.cls-46{fill:#ed7d2b;}.cls-47{fill:#ed975d;}.cls-48{fill:#f99746;}.cls-49{fill:#2b478b;}.cls-50{fill:#f99f46;}.cls-51{fill:#afcdfb;}.cls-52{fill:#c6c6c6;}.cls-53{fill:#ddd;}.cls-54{fill:#e8bd69;}.cls-55{fill:#ff973d;}.cls-56{fill:#ff7e1c;}.cls-57{fill:#f3c6a6;}.cls-58{fill:#d49d7a;}.cls-59{stroke:#000;}</style></defs><g id="Calque_2" data-name="Calque 2"><g id="Calque_1-2" data-name="Calque 1"><g id="Groupe_2160" data-name="Groupe 2160"><g id="Groupe_2157" data-name="Groupe 2157"><path id="Tracé_646" data-name="Tracé 646" class="cls-1" d="M64.58,144.85A139.21,139.21,0,0,1,85.76,119C118.52,87.44,207.45,13,321.51,19.72c201,11.87,342.9,268.77,280.63,357.06-16.91,24-50,40.58-104.38,45.39C307.08,439,181.26,398.75,119.5,370.7,79.58,352.57,50.17,319.41,40,279.92c-.47-1.79-.9-3.61-1.31-5.45C26.07,217.52,48.91,169.64,64.58,144.85Z"/><g id="Groupe_2153" data-name="Groupe 2153"><g id="Composant_4_1" data-name="Composant 4 1"><g id="Groupe_832" data-name="Groupe 832"><path id="Tracé_2355" data-name="Tracé 2355" class="cls-2" d="M633.41,429.44c8.7,0,16.84.19,23.88.53,14.05.67,23.52,1.92,23.52,3.35,0,2.14-21.22,3.87-47.4,3.87S586,435.46,586,433.32,607.24,429.44,633.41,429.44Z"/><path id="Tracé_2308" data-name="Tracé 2308" class="cls-3" d="M571.67,286.18s-3.34.63-3.66,1.19-.54,3-.21,2.89,1.11-2.07,1.11-2.07l4.75-.43C573.72,287,571.67,286.18,571.67,286.18Z"/><path id="Tracé_2309" data-name="Tracé 2309" class="cls-3" d="M617,267.76c-3.25,4.52-8.94,13.86-13.59,15.24-3.65-.11-20.55,4.24-24,5.14,0,0-6.11-2.46-6.75-3.08s-6.44.85-6.45,2.47c0,.4,6.05-1.43,6.15-1.13.26.78,1.34.81.11,2-1.77,1.69,3.85,2,6.28,2.45.08,0,22.15.1,28.81-1.19.14,0,11.75-6.9,12.93-9.08,1.53-2.85,5.08-17,5.08-17A10.92,10.92,0,0,0,617,267.76Z"/><g id="Groupe_832-2" data-name="Groupe 832-2"><path id="Tracé_2311" data-name="Tracé 2311" class="cls-3" d="M631.24,422.23c-.63-5.67-10.65-51.29-10.65-51.29L620,336.1c5.14-.75,8.1-2.18,13.28-2.61-5.2,17-4.45,33.84-2.4,37.81,3.45,6.69,1.58,46,1.58,46l2,.73s1.7,11-.28,11.31l-2.69.4C633.51,427.39,631.4,423.61,631.24,422.23Z"/><path id="Tracé_2312" data-name="Tracé 2312" class="cls-4" d="M626.37,311.84A47.92,47.92,0,0,1,633.29,327c1.88,8.17-2.79,42.6-2.79,42.6s3.71,11.87,4.32,17.39l-12,2-4.3-28S620,327.63,622,319C623.43,312.52,622.5,308.86,626.37,311.84Z"/><path id="Tracé_2313" data-name="Tracé 2313" class="cls-4" d="M636.36,306.36l-14.66,3,0,.33c.25,2.31,1.91,16.14,5.93,22.26.12.19.25.38.38.56,4.69,6.31,15.61-21.33,15.61-21.33Z"/></g><g id="Groupe_834" data-name="Groupe 834"><path id="Tracé_2314" data-name="Tracé 2314" class="cls-3" d="M636.2,423.66c0-5.85-5.58-51.12-5.58-51.12L629.48,336c5.2-.24,10.4-.33,15.6-.24-7.06,16.76-5.15,31.68-3.56,35.95,2.68,7.18-3.41,46.47-3.41,46.47l1.71,1.57s.47,11.41-1.53,11.5l-2.73.13C637.88,429.15,636.2,425.08,636.2,423.66Z"/><path id="Tracé_2315" data-name="Tracé 2315" class="cls-5" d="M643.65,311.16a47.54,47.54,0,0,1,5.21,15.78c1,8.32-7.51,42.08-7.51,42.08s2.37,12.17,2.37,17.72l-12.13.77-3.51-17.41s-1.83-44.44,2.09-49.86S640.14,307.8,643.65,311.16Z"/></g><path id="Tracé_2317" data-name="Tracé 2317" class="cls-6" d="M640.39,246.65c.56-1.49,2-4.42,3.31-3.48,1.41.73-1,2.63-1.94,1.18a1.75,1.75,0,0,1,.35-2c1.54-1.66,5.52.42,3.9,2l1,.55c1.8-3.39-5.24-5.4-5.88-1.64a1.59,1.59,0,0,0,1.13,1.94h0a1.48,1.48,0,0,0,.35.05c1.4,0,2.52-1.62,1.22-2.29-1.55-1.07-3.07,1.88-3.73,3.63Z"/><path id="Tracé_2318" data-name="Tracé 2318" class="cls-7" d="M624.08,264a13.91,13.91,0,0,1,5.91-.47s6.42-.25,10.12,3.55-3.91,28.75-3.1,36.43c.26,2.52,5.07,4.54,6.68,7.68-4.62-.26-8.74.09-12.71,0-2.85-.05-9.45,3.88-12.65,4.09-1.4-4.32-1.93-21.79-2.11-34.67C616.09,271.78,621.64,264.81,624.08,264Z"/><path id="Tracé_2319" data-name="Tracé 2319" class="cls-8" d="M640.14,267.05c4.24,4.28-3.08,29.33-2.67,36.23.18,2.46,4.79,4.65,6.18,7.88-2.14-3.3-6.88-4.79-7.21-7.8C635.4,294.36,643.24,271.44,640.14,267.05Z"/><path id="Tracé_2320" data-name="Tracé 2320" class="cls-3" d="M633.73,249.92s1.53,12.56-1,16.21a5.49,5.49,0,0,1-5.45,2.06,2.19,2.19,0,0,1-1.95-2.4l0-.19c.66-3.2,1.77-9.33,1.18-12.1C625.71,249.67,633.73,249.92,633.73,249.92Z"/><path id="Tracé_2321" data-name="Tracé 2321" class="cls-3" d="M633.86,251.18a26.51,26.51,0,0,1-7.18,5.34,12.15,12.15,0,0,0-.15-3c-.82-3.84,7.2-3.59,7.2-3.59S633.79,250.39,633.86,251.18Z"/><g id="Groupe_836" data-name="Groupe 836"><g id="Groupe_835" data-name="Groupe 835"><path id="Tracé_2322" data-name="Tracé 2322" class="cls-9" d="M638.08,243.47a9,9,0,0,0-2.34-5.39c-3.35-3.92-9.71-2.79-12.11,2a5.43,5.43,0,0,0-.48,1.35,5,5,0,0,1-3.3,3.67,1.16,1.16,0,0,0,.52,1.1c.63.42.44.72.06,1.07s-.64.35-.58.74.71.75.71.75-.72.49-.66.91a.57.57,0,0,0,.36.49s.53.49.25.89a1.73,1.73,0,0,0-.06,1.41c.15.6,1.38,3.64,8.23.89S637.93,246.52,638.08,243.47Z"/></g></g><path id="Tracé_2327" data-name="Tracé 2327" class="cls-6" d="M645.33,245.4s3.54-.11,4.29,1.42a2.86,2.86,0,0,1-.47,2.93s1.5-.59.53,2.64-11.24,6.67-12.72.26S644.79,245.36,645.33,245.4Z"/><path id="Tracé_2328" data-name="Tracé 2328" class="cls-10" d="M637.92,249.87c1.72-.05,4.93.34,4.37,1.84-.72,2.32-4.08,1.77-3.16.22.69-1.46,3.79-.05,3.75,1.31a2.05,2.05,0,0,1-2.21,1.87,2.1,2.1,0,0,1-1.36-.68l-.6.59c2.89,2.66,6.49-1.34,4.18-3.29-1.3-1.09-3.65-1.59-4.3,0a1.4,1.4,0,0,0,.25,1.69,2.06,2.06,0,0,0,1.64.38c1.86-.22,2.58-2,2.21-2.79-.58-1.33-3.31-1.47-4.8-1.4Z"/><path id="Tracé_2329" data-name="Tracé 2329" class="cls-10" d="M636.25,234.92c5.17,2.16,4.47,6.86,4.09,11.35s-6.42,5.61-6.48,4.91c0,0-1.3-5.42-3.25-6.16s-5.78-6.68-5.78-6.68C624.32,234.3,631.08,232.76,636.25,234.92Z"/><g id="Groupe_838" data-name="Groupe 838"><g id="Groupe_837" data-name="Groupe 837"><path id="Tracé_2330" data-name="Tracé 2330" class="cls-11" d="M596.05,238S578.69,248.91,579,250.43s6.25,7.08,7.91,6.8S598.51,240,598.51,240Z"/><path id="Tracé_2331" data-name="Tracé 2331" class="cls-12" d="M595.66,234.58l2.36,1.89-2,1.52-.08-1.28-1.08-.9Z"/><path id="Tracé_2332" data-name="Tracé 2332" class="cls-12" d="M600.45,238.41l.72,2.31s-3.79,7.64-4.18,7.46,2.84-7,2.84-7l-1.12-1.47Z"/><path id="Tracé_2333" data-name="Tracé 2333" class="cls-13" d="M597.1,235.55,596.05,238l2.46,2,2.19-1.62Z"/></g><path id="Tracé_2334" data-name="Tracé 2334" class="cls-3" d="M637.66,265.72c-3.81-1.16-8.69-1.13-15.88,1.95-8.47,3.63-14.18,5.9-19.24,5.9-6.75,0-2.61-22.88-2.29-24.58l-.83-7.86-5,1.84,2.85,6.58c-2.86,8.63-6.4,21.53-3.79,26.88,3.21,6.57,38.47,4,46.14-5.67C640.86,269.19,639.5,266.27,637.66,265.72Z"/><path id="Tracé_2335" data-name="Tracé 2335" class="cls-14" d="M637.66,265.72c-5.29-1.42-10.48-.09-15.47,2.06-3.77,1.67-17.68,7.89-21.14,5.69-4.7-2.75-1.88-19.3-.81-24.49-.68,4.56-3,21.6,1.16,24,1.12.66,4.37,0,5.64-.24,8.3-1.8,15.44-6.58,22.65-7.59A17.5,17.5,0,0,1,637.66,265.72Z"/><path id="Tracé_2336" data-name="Tracé 2336" class="cls-3" d="M591.86,239.25c.3-.28,7.55,1.88,7.55,1.88l-1.4.51S591.17,239.92,591.86,239.25Z"/><path id="Tracé_2337" data-name="Tracé 2337" class="cls-3" d="M594.42,243s-4.47-1.51-3.6-1.84,5.38,1.18,5.38,1.18Z"/><path id="Tracé_2338" data-name="Tracé 2338" class="cls-3" d="M598.51,241.46s-6.7-1.78-6.7-1.27,4.39,2.12,4.39,2.12Z"/><path id="Tracé_2339" data-name="Tracé 2339" class="cls-3" d="M601.85,241.19c.64.32-1.37,1.94-1.37,2.68a5.18,5.18,0,0,1-.68,1.89l-.37-2.39S600.82,240.69,601.85,241.19Z"/></g><path id="Tracé_2340" data-name="Tracé 2340" class="cls-10" d="M629.2,243.39a3.69,3.69,0,0,1,.71,2.35c.14,1.18.4,1.16,1,2.25.65,1.28.9,2.54-.54,2.87a1.42,1.42,0,0,1-1.65-1.15.5.5,0,0,1,0-.12l.64-.08c.09,1.28,1.9,1.21,1.66-.25A8.29,8.29,0,0,0,630,247C629.46,245.85,630.06,244.33,629.2,243.39Z"/><path id="Tracé_2341" data-name="Tracé 2341" class="cls-15" d="M623.88,236,634,252l2.17.13s3.87-14.19,6.55-14.19c0,0-5.28-4.41-8.49-4.41S626.79,233.27,623.88,236Z"/><path id="Tracé_2342" data-name="Tracé 2342" class="cls-16" d="M642.68,237.89c-2.27-1.54-6.32-4.28-9.07-4.07-3.62,0-6.94,0-9.73,2.22,2.36-2.68,6.7-3.12,10.39-2.89C637.27,233.46,640.55,235.85,642.68,237.89Z"/><path id="Tracé_2343" data-name="Tracé 2343" class="cls-16" d="M628.3,236.8l6.08,14.09-6.73-13.82Z"/><path id="Tracé_2344" data-name="Tracé 2344" class="cls-17" d="M634.84,253s-.86,2.88-.22,4a3.83,3.83,0,0,0,2.18,1.49v-3.4C636.8,253.77,634.84,253,634.84,253Z"/><path id="Tracé_2345" data-name="Tracé 2345" class="cls-17" d="M635.59,252.73s3.19.21,4,1.79a12.73,12.73,0,0,0,1.51,2.33s-4.18-.31-5-1.15S635.59,252.73,635.59,252.73Z"/><path id="Tracé_2346" data-name="Tracé 2346" class="cls-17" d="M634.52,251.37s-.88.1-.66,1.36,2.59.91,2.59,0a1.41,1.41,0,0,0-1.39-1.45h0A1.39,1.39,0,0,0,634.52,251.37Z"/><path id="Tracé_2347" data-name="Tracé 2347" class="cls-3" d="M575.73,290s-2,.06-3.38,0-3.77-1.25-3.43-1.84,2.3.81,2.67.71,1.58-1.3,1.33-1.66A9.59,9.59,0,0,1,575.73,290Z"/><g id="Groupe_839" data-name="Groupe 839"><path id="Tracé_2349" data-name="Tracé 2349" class="cls-18" d="M594.89,234.58l-12.5-13.41a.14.14,0,0,1,0-.21h0a.16.16,0,0,1,.22,0h0Z"/></g><g id="Groupe_840" data-name="Groupe 840"><path id="Tracé_2350" data-name="Tracé 2350" class="cls-18" d="M579.06,224.92l16.11,10-16.29-9.73a.15.15,0,0,1,0-.2h0a.16.16,0,0,1,.23-.05Z"/></g><g id="Groupe_841" data-name="Groupe 841"><path id="Tracé_2351" data-name="Tracé 2351" class="cls-18" d="M579,230.66l15.88,4.41-16-4.12a.15.15,0,0,1-.11-.18h0a.15.15,0,0,1,.19-.11Z"/></g><g id="Groupe_842" data-name="Groupe 842"><path id="Tracé_2352" data-name="Tracé 2352" class="cls-18" d="M577.25,233l16.47,2.53-16.52-2.22a.16.16,0,0,1-.14-.17h0a.15.15,0,0,1,.18-.13h0Z"/></g><g id="Groupe_843" data-name="Groupe 843"><path id="Tracé_2353" data-name="Tracé 2353" class="cls-18" d="M589.4,224.21l5.49,10.37-5.78-10.23a.16.16,0,0,1,.06-.21h0a.17.17,0,0,1,.22.07Z"/></g></g><g id="Groupe_117" data-name="Groupe 117"><path id="Tracé_429" data-name="Tracé 429" class="cls-4" d="M570.27,150H181.67a3.46,3.46,0,0,0-3.46,3.46h0v10.09H573.73V153.42A3.46,3.46,0,0,0,570.27,150Z"/><path id="Tracé_430" data-name="Tracé 430" class="cls-19" d="M178.2,163.51v227a7,7,0,0,0,7,7H566.75a7,7,0,0,0,7-7h0v-227Z"/><circle id="Ellipse_50" data-name="Ellipse 50" class="cls-20" cx="184.48" cy="156.63" r="1.62"/><circle id="Ellipse_51" data-name="Ellipse 51" class="cls-21" cx="188.92" cy="156.63" r="1.62"/><circle id="Ellipse_52" data-name="Ellipse 52" class="cls-22" cx="193.37" cy="156.63" r="1.62"/></g><path id="Tracé_650" data-name="Tracé 650" class="cls-3" d="M123.5,272.23l1.17-9.36s-2.67-8.76-5.87-8.27.85,9.71.85,9.71l.69,4.48Z"/><path id="Tracé_651" data-name="Tracé 651" class="cls-18" d="M76.32,260.05a6.17,6.17,0,0,0,1.45-.48,6.27,6.27,0,1,0-5-11.48l-.32.15h0a6.27,6.27,0,0,1,3.91,11.81Z"/><path id="Tracé_652" data-name="Tracé 652" class="cls-23" d="M56.12,225.61a1.79,1.79,0,0,0-1.79,1.79v30a1.79,1.79,0,0,0,1.79,1.79H177.18a1.8,1.8,0,0,0,1.8-1.79v-30a1.79,1.79,0,0,0-1.79-1.79H56.12Z"/><circle id="Ellipse_68" data-name="Ellipse 68" class="cls-24" cx="71.81" cy="242.42" r="9.42"/><path id="Tracé_653" data-name="Tracé 653" class="cls-19" d="M93.56,236.14a1.57,1.57,0,0,0,0,3.14h74a1.57,1.57,0,1,0,.07-3.14H93.56Z"/><path id="Tracé_654" data-name="Tracé 654" class="cls-19" d="M93.56,245.56a1.57,1.57,0,0,0,0,3.14h74a1.57,1.57,0,1,0,.07-3.14H93.56Z"/><g id="Groupe_139" data-name="Groupe 139"><path id="Tracé_655" data-name="Tracé 655" class="cls-25" d="M71.84,251.89A9.37,9.37,0,0,0,77,250.33c-.34-1.9-1.67-2-1.67-2h-7.3s-1.24.11-1.64,1.85A9.44,9.44,0,0,0,71.84,251.89Z"/><circle id="Ellipse_69" data-name="Ellipse 69" class="cls-26" cx="71.73" cy="242.21" r="4.56"/><path id="Tracé_656" data-name="Tracé 656" class="cls-27" d="M70.27,246h2.91v2.34a1.45,1.45,0,0,1-1.45,1.45h0a1.45,1.45,0,0,1-1.46-1.45h0V246Z"/><path id="Tracé_657" data-name="Tracé 657" class="cls-28" d="M70.55,245.9h2.36a.28.28,0,0,1,.28.27h0v2.06a1.46,1.46,0,0,1-1.46,1.46h0a1.46,1.46,0,0,1-1.46-1.46h0v-2a.28.28,0,0,1,.27-.28Z"/><path id="Tracé_658" data-name="Tracé 658" class="cls-27" d="M70.27,247.11a4.25,4.25,0,0,0,2.92,0v-.36H70.27Z"/><circle id="Ellipse_70" data-name="Ellipse 70" class="cls-28" cx="71.73" cy="243.12" r="4.18"/><circle id="Ellipse_71" data-name="Ellipse 71" class="cls-26" cx="71.73" cy="237.58" r="1.69"/><circle id="Ellipse_72" data-name="Ellipse 72" class="cls-26" cx="71.73" cy="235.92" r="1.1"/><path id="Tracé_659" data-name="Tracé 659" class="cls-26" d="M71,238.5a1.68,1.68,0,0,1-.88-2.15l0,.08a1.68,1.68,0,0,0,3,1.45.2.2,0,0,0,0-.08.34.34,0,0,0,0-.08A1.67,1.67,0,0,1,71,238.5Z"/><path id="Tracé_660" data-name="Tracé 660" class="cls-27" d="M68.75,239.32s1.77,3.58,6.74,1.5L74.33,239l-2-.74Z"/><path id="Tracé_661" data-name="Tracé 661" class="cls-26" d="M68.75,239.26s1.77,3.58,6.74,1.5L74.33,239l-2-.74Z"/><path id="Tracé_662" data-name="Tracé 662" class="cls-29" d="M70.12,238a19.71,19.71,0,0,1,3.26,0A16.14,16.14,0,0,1,70.12,238Z"/><path id="Tracé_663" data-name="Tracé 663" class="cls-26" d="M72,234.75a1,1,0,0,0-.24,0h.06A1.1,1.1,0,0,1,72,237a1.1,1.1,0,1,0,0-2.2Z"/><ellipse id="Ellipse_73" data-name="Ellipse 73" class="cls-28" cx="67.55" cy="243.11" rx="0.39" ry="0.73"/><ellipse id="Ellipse_74" data-name="Ellipse 74" class="cls-28" cx="75.92" cy="243.11" rx="0.39" ry="0.73"/><path id="Tracé_664" data-name="Tracé 664" class="cls-26" d="M68.49,239.37l.82-.42.18.67L69,240Z"/></g><g id="Groupe_140" data-name="Groupe 140"><path id="Tracé_665" data-name="Tracé 665" class="cls-23" d="M405.6,185.14a1.86,1.86,0,0,0-1.86,1.86h0v31.14A1.86,1.86,0,0,0,405.6,220H531.14a1.86,1.86,0,0,0,1.86-1.85V187a1.86,1.86,0,0,0-1.86-1.86Z"/><circle id="Ellipse_75" data-name="Ellipse 75" class="cls-24" cx="421.87" cy="202.56" r="9.76"/><path id="Tracé_666" data-name="Tracé 666" class="cls-19" d="M444.42,196.06a1.63,1.63,0,1,0-.11,3.25h76.83a1.63,1.63,0,0,0,0-3.25Z"/><path id="Tracé_667" data-name="Tracé 667" class="cls-19" d="M444.42,205.82a1.63,1.63,0,0,0-.15,3.25.33.33,0,0,0,.14,0h76.73a1.63,1.63,0,0,0,0-3.25Z"/><path id="Tracé_668" data-name="Tracé 668" class="cls-23" d="M405.6,238.61a1.86,1.86,0,0,0-1.86,1.86h0v31.14a1.86,1.86,0,0,0,1.86,1.86H531.14a1.86,1.86,0,0,0,1.86-1.86h0V240.47a1.86,1.86,0,0,0-1.86-1.86Z"/><circle id="Ellipse_76" data-name="Ellipse 76" class="cls-24" cx="421.87" cy="256.04" r="9.76"/><path id="Tracé_669" data-name="Tracé 669" class="cls-19" d="M444.42,249.53a1.63,1.63,0,1,0-.11,3.25h76.83a1.63,1.63,0,0,0,0-3.25Z"/><path id="Tracé_670" data-name="Tracé 670" class="cls-19" d="M444.42,259.29a1.63,1.63,0,1,0-.15,3.25h76.87a1.63,1.63,0,0,0,0-3.25Z"/><path id="Tracé_671" data-name="Tracé 671" class="cls-23" d="M405.6,292.08a1.86,1.86,0,0,0-1.86,1.86h0v31.15a1.85,1.85,0,0,0,1.86,1.85H531.14a1.86,1.86,0,0,0,1.86-1.85h0V293.94a1.86,1.86,0,0,0-1.86-1.86Z"/><circle id="Ellipse_77" data-name="Ellipse 77" class="cls-24" cx="421.87" cy="309.51" r="9.76"/><path id="Tracé_672" data-name="Tracé 672" class="cls-19" d="M444.42,303a1.63,1.63,0,1,0-.11,3.25h76.83a1.63,1.63,0,0,0,0-3.25Z"/><path id="Tracé_673" data-name="Tracé 673" class="cls-19" d="M444.42,312.76a1.63,1.63,0,0,0-.15,3.25h76.87a1.63,1.63,0,0,0,0-3.25Z"/></g><circle id="Ellipse_78" data-name="Ellipse 78" class="cls-30" cx="503.82" cy="163.79" r="0.7"/><ellipse id="Ellipse_80" data-name="Ellipse 80" class="cls-27" cx="104.43" cy="426.25" rx="38.77" ry="7.95"/><path id="Tracé_704" data-name="Tracé 704" class="cls-31" d="M102.65,306.93l24.87-13,.41-26.94-8.43.64-3.32,20.85-28.61,5.74Z"/><path id="Tracé_705" data-name="Tracé 705" class="cls-32" d="M102.65,306.93l24.87-13,.41-26.94-8.43.64-3.32,20.85-28.61,5.74Z"/><path id="Tracé_706" data-name="Tracé 706" class="cls-18" d="M99.46,340.5l-5.13,44.94-1.25,37.1h9.72l5.79-37.83,3.19-38.52Z"/><path id="Tracé_707" data-name="Tracé 707" class="cls-18" d="M93.23,421.32c-1.29.14-1.14,7.29-1,8.58s22.89.71,24.47-2.73-8.87-3.57-8.87-3.57L101,420.45Z"/><path id="Tracé_708" data-name="Tracé 708" class="cls-18" d="M98.81,336l9.08,9.05-7.07,38.89L72.35,416.33l-8.43-7.12,23.29-29.83.61-24c-4.54-7.77-4.72-12.77-4.72-12.77Z"/><path id="Tracé_709" data-name="Tracé 709" class="cls-18" d="M72.34,414.39v8.42a46.3,46.3,0,0,1,2.6,4.54c1.3,2.58-2.59,2.59-2.59,2.59-8.41,2-11.68-12.94-13-16.18s6.47-4.54,6.47-4.54Z"/><path id="Tracé_710" data-name="Tracé 710" class="cls-3" d="M132.12,273.33l2.7-9.51s-1.37-9.51-4.76-9.5-.67,10.18-.67,10.18v4.75Z"/><path id="Tracé_711" data-name="Tracé 711" class="cls-15" d="M102.65,302.27l26.55-9.11,4.51-26.57-8.43-.63-6.45,20.09-29.15,1.34Z"/><path id="Tracé_712" data-name="Tracé 712" class="cls-18" d="M94.08,280.13a10.5,10.5,0,0,0,7.19-13h0A13.21,13.21,0,0,0,88,254h0a13.2,13.2,0,0,0-13.2,13.22h0a10.11,10.11,0,0,0,7.9,11.91,10.56,10.56,0,0,0,2,.2l3.93,1A10.59,10.59,0,0,0,94.08,280.13Z"/><circle id="Ellipse_81" data-name="Ellipse 81" class="cls-18" cx="74.14" cy="257.75" r="6.27"/><circle id="Ellipse_82" data-name="Ellipse 82" class="cls-3" cx="92.9" cy="271.18" r="9.72"/><path id="Tracé_713" data-name="Tracé 713" class="cls-3" d="M97.44,277.66l1.31,11H88.38v-11Z"/><path id="Tracé_714" data-name="Tracé 714" class="cls-15" d="M109.77,291.89c5.84,3.23,1.31,14.25,1.31,14.25l2,40.81-10.37,1.31L82,347l5.8-22.68s-3.27-31.74-3.93-33,4.53-6.48,4.53-6.48L98.2,284l3.14.77A25.5,25.5,0,0,0,109.77,291.89Z"/><path id="Tracé_715" data-name="Tracé 715" class="cls-18" d="M76.37,268.93l4.55,7.12,7.13,3.88,7-12.32,1.74-2.84,1.46,3.65,6.51,1.65a9.85,9.85,0,0,0-4.55-9.62l-6.5-4.08-8.45,1.56Z"/><path id="Tracé_716" data-name="Tracé 716" class="cls-23" d="M227.44,289a2,2,0,0,0,0,4h94.48a2,2,0,1,0,0-4H227.44Z"/><path id="Tracé_717" data-name="Tracé 717" class="cls-23" d="M228.65,302.62a2,2,0,0,0,0,4h94.47a2,2,0,0,0,0-4Z"/><path id="Tracé_718" data-name="Tracé 718" class="cls-23" d="M226.93,316.25a2,2,0,0,0,0,4H321.4a2,2,0,0,0,0-4Z"/><rect id="Rectangle_297" data-name="Rectangle 297" class="cls-23" x="213.75" y="188.93" width="129.19" height="80.45"/><rect id="Rectangle_298" data-name="Rectangle 298" class="cls-19" x="222.42" y="204.43" width="23.66" height="15.38"/><rect id="Rectangle_299" data-name="Rectangle 299" class="cls-19" x="251.82" y="204.43" width="23.66" height="15.38"/><rect id="Rectangle_300" data-name="Rectangle 300" class="cls-19" x="281.22" y="204.43" width="23.66" height="15.38"/><rect id="Rectangle_301" data-name="Rectangle 301" class="cls-19" x="310.62" y="204.43" width="23.66" height="15.38"/><rect id="Rectangle_302" data-name="Rectangle 302" class="cls-19" x="222.42" y="226.2" width="23.66" height="15.38"/><rect id="Rectangle_303" data-name="Rectangle 303" class="cls-19" x="251.82" y="226.2" width="23.66" height="15.38"/><rect id="Rectangle_304" data-name="Rectangle 304" class="cls-19" x="281.22" y="226.2" width="23.66" height="15.38"/><rect id="Rectangle_305" data-name="Rectangle 305" class="cls-19" x="310.62" y="226.2" width="23.66" height="15.38"/><rect id="Rectangle_306" data-name="Rectangle 306" class="cls-19" x="222.42" y="247.97" width="23.66" height="15.38"/><rect id="Rectangle_307" data-name="Rectangle 307" class="cls-19" x="251.82" y="247.97" width="23.66" height="15.38"/><rect id="Rectangle_308" data-name="Rectangle 308" class="cls-19" x="281.22" y="247.97" width="23.66" height="15.38"/><rect id="Rectangle_309" data-name="Rectangle 309" class="cls-19" x="310.62" y="247.97" width="23.66" height="15.38"/><circle id="Ellipse_83" data-name="Ellipse 83" class="cls-19" cx="247.59" cy="194.85" r="3.55"/><circle id="Ellipse_84" data-name="Ellipse 84" class="cls-19" cx="306.27" cy="194.85" r="3.55"/><rect id="Rectangle_310" data-name="Rectangle 310" class="cls-33" x="246.17" y="179.47" width="2.84" height="16.32"/><rect id="Rectangle_311" data-name="Rectangle 311" class="cls-33" x="304.85" y="179.47" width="2.84" height="16.32"/><path id="Tracé_719" data-name="Tracé 719" class="cls-25" d="M327.8,212.12a5.32,5.32,0,1,1-.82-2.86A5.33,5.33,0,0,1,327.8,212.12Z"/><path id="Tracé_720" data-name="Tracé 720" class="cls-19" d="M327,209.26l-5.27,5.27c-.33-.51-2.18-2.89-2.18-2.89a9.45,9.45,0,0,1,.75-.67l1.53,2,4.55-4.54A5.26,5.26,0,0,1,327,209.26Z"/><path id="Tracé_721" data-name="Tracé 721" class="cls-25" d="M269,233.89a5.32,5.32,0,1,1-.82-2.86A5.46,5.46,0,0,1,269,233.89Z"/><path id="Tracé_722" data-name="Tracé 722" class="cls-19" d="M268.17,231l-5.26,5.27c-.33-.51-2.18-2.89-2.18-2.89a9.45,9.45,0,0,1,.75-.67l1.53,2,4.55-4.55A4.63,4.63,0,0,1,268.17,231Z"/><path id="Tracé_723" data-name="Tracé 723" class="cls-15" d="M239.6,233.89a5.32,5.32,0,1,1-.82-2.86A5.34,5.34,0,0,1,239.6,233.89Z"/><path id="Tracé_724" data-name="Tracé 724" class="cls-19" d="M238.77,231l-5.27,5.27c-.33-.51-2.17-2.89-2.17-2.89a8,8,0,0,1,.75-.67l1.53,2,4.54-4.55A4.23,4.23,0,0,1,238.77,231Z"/><g id="Groupe_150" data-name="Groupe 150"><path id="Tracé_742" data-name="Tracé 742" class="cls-25" d="M421.79,319.35a9.12,9.12,0,0,0,5.08-1.52c-.34-1.86-1.64-2-1.64-2h-7.15s-1.22.1-1.6,1.81A9.09,9.09,0,0,0,421.79,319.35Z"/><circle id="Ellipse_95" data-name="Ellipse 95" class="cls-34" cx="421.69" cy="309.88" r="4.46"/><path id="Tracé_743" data-name="Tracé 743" class="cls-27" d="M420.25,313.6h2.85v2.28a1.42,1.42,0,0,1-1.42,1.44h0a1.43,1.43,0,0,1-1.43-1.43V313.6Z"/><path id="Tracé_744" data-name="Tracé 744" class="cls-28" d="M420.52,313.49h2.31a.28.28,0,0,1,.28.27v2a1.43,1.43,0,0,1-1.43,1.42h0a1.43,1.43,0,0,1-1.43-1.42v-2a.27.27,0,0,1,.26-.27h0Z"/><path id="Tracé_745" data-name="Tracé 745" class="cls-27" d="M420.25,314.68a4.14,4.14,0,0,0,2.86,0v-.36h-2.86Z"/><circle id="Ellipse_96" data-name="Ellipse 96" class="cls-28" cx="421.69" cy="310.77" r="4.1"/><path id="Tracé_746" data-name="Tracé 746" class="cls-27" d="M418.77,307s1.72,3.51,6.6,1.47l-1.14-1.78-2-.72Z"/><path id="Tracé_747" data-name="Tracé 747" class="cls-34" d="M418.77,307s1.72,3.51,6.6,1.47l-1.14-1.78-2-.73Z"/><path id="Tracé_748" data-name="Tracé 748" class="cls-34" d="M418.76,306.75a2.29,2.29,0,0,1,.58-.95c.81-.79,2.13-1,2.8-1.87a.53.53,0,0,1-.19.72l-.05,0a2.08,2.08,0,0,0,1.77-.6,1.2,1.2,0,0,1-.2,1.28,1.22,1.22,0,0,1,1.22,1,1.14,1.14,0,0,1-.53,1,2.89,2.89,0,0,1-1.07.4C422,308,418,309,418.76,306.75Z"/><path id="Tracé_749" data-name="Tracé 749" class="cls-34" d="M425.79,310.81h-.11l-2.12,1.88a3.8,3.8,0,0,0-3.53,0l-2.22-1.8-.22,0a4.1,4.1,0,0,0,8.2-.11Zm-4.1,2.6c-.8,0-1.45-.16-1.45-.36s.65-.36,1.45-.36,1.44.16,1.44.36-.65.36-1.44.36Z"/><ellipse id="Ellipse_97" data-name="Ellipse 97" class="cls-28" cx="417.59" cy="310.77" rx="0.38" ry="0.72"/><ellipse id="Ellipse_98" data-name="Ellipse 98" class="cls-28" cx="425.78" cy="310.77" rx="0.38" ry="0.72"/></g><g id="Groupe_151" data-name="Groupe 151"><path id="Tracé_750" data-name="Tracé 750" class="cls-25" d="M421.77,265.8a10.13,10.13,0,0,0,5.89-1.89c-.39-2.31-1.9-2.44-1.9-2.44h-8.28s-1.42.12-1.86,2.25A10.14,10.14,0,0,0,421.77,265.8Z"/><path id="Tracé_751" data-name="Tracé 751" class="cls-27" d="M420,258.65h3.32v2.84a1.73,1.73,0,0,1-1.66,1.78h0a1.71,1.71,0,0,1-1.65-1.78h0v-2.84Z"/><path id="Tracé_752" data-name="Tracé 752" class="cls-35" d="M420.31,258.51H423a.34.34,0,0,1,.32.34v2.5a1.73,1.73,0,0,1-1.66,1.78h0a1.71,1.71,0,0,1-1.65-1.78h0v-2.5a.33.33,0,0,1,.29-.34h0Z"/><path id="Tracé_753" data-name="Tracé 753" class="cls-27" d="M420,260a4.46,4.46,0,0,0,3.31,0v-.44H420Z"/><ellipse id="Ellipse_99" data-name="Ellipse 99" class="cls-35" cx="421.66" cy="255.13" rx="4.75" ry="5.09"/><ellipse id="Ellipse_100" data-name="Ellipse 100" class="cls-35" cx="417.01" cy="254.91" rx="0.44" ry="0.89"/><ellipse id="Ellipse_101" data-name="Ellipse 101" class="cls-35" cx="426.29" cy="254.91" rx="0.44" ry="0.89"/><path id="Tracé_754" data-name="Tracé 754" class="cls-36" d="M419.17,255.16h1.21a.42.42,0,0,1,.41.44v.21a.42.42,0,0,1-.41.44h-1.21a.42.42,0,0,1-.4-.44h0v-.21A.42.42,0,0,1,419.17,255.16Z"/><path id="Tracé_755" data-name="Tracé 755" class="cls-36" d="M424.14,256.25h-1.21a.42.42,0,0,1-.4-.44h0v-.21a.42.42,0,0,1,.4-.44h1.21a.42.42,0,0,1,.41.44v.21A.42.42,0,0,1,424.14,256.25Z"/><path id="Tracé_756" data-name="Tracé 756" class="cls-36" d="M420.72,255.26a2.44,2.44,0,0,1,1.84,0"/><path id="Tracé_757" data-name="Tracé 757" class="cls-37" d="M424.94,251.45l1.17,2.9S427.53,252.42,424.94,251.45Z"/><line id="Ligne_7" data-name="Ligne 7" class="cls-38" x1="424.55" y1="255.71" x2="426.29" y2="254.04"/><path id="Tracé_758" data-name="Tracé 758" class="cls-37" d="M418.38,251.45l-1.17,2.9S415.79,252.42,418.38,251.45Z"/><line id="Ligne_8" data-name="Ligne 8" class="cls-38" x1="418.77" y1="255.71" x2="417" y2="254.04"/></g><g id="Groupe_152" data-name="Groupe 152"><path id="Tracé_759" data-name="Tracé 759" class="cls-29" d="M426.88,203.44c0,3.34-2.4,5-5.51,5s-5.76-1.64-5.76-5a5.65,5.65,0,1,1,11.27-.8c0,.26,0,.53,0,.8Z"/><path id="Tracé_760" data-name="Tracé 760" class="cls-25" d="M421.36,212.52a10,10,0,0,0,5.52-1.65c-.37-2-1.78-2.14-1.78-2.14h-7.75s-1.33.11-1.75,2A10.07,10.07,0,0,0,421.36,212.52Z"/><path id="Tracé_761" data-name="Tracé 761" class="cls-27" d="M419.7,206.26h3.1v2.48a1.55,1.55,0,0,1-1.55,1.56h0a1.56,1.56,0,0,1-1.56-1.56h0Z"/><path id="Tracé_762" data-name="Tracé 762" class="cls-28" d="M420,206.15h2.51a.3.3,0,0,1,.3.3v2.18a1.55,1.55,0,0,1-1.55,1.55h0a1.54,1.54,0,0,1-1.55-1.55h0v-2.18a.3.3,0,0,1,.3-.3Z"/><path id="Tracé_763" data-name="Tracé 763" class="cls-27" d="M419.7,207.44a4.53,4.53,0,0,0,3.1,0v-.38h-3.1Z"/><circle id="Ellipse_102" data-name="Ellipse 102" class="cls-28" cx="421.26" cy="203.2" r="4.45"/><path id="Tracé_764" data-name="Tracé 764" class="cls-27" d="M416.14,203.49a8,8,0,0,0,4.86-3s2.77,3.06,4.7,2.72a1.68,1.68,0,0,0,0-2.35c-1.12-1.18-2-2.66-3.47-2.46s-3.3.28-4.08,1S416.14,203.49,416.14,203.49Z"/><path id="Tracé_765" data-name="Tracé 765" class="cls-29" d="M416.14,203.43a7.89,7.89,0,0,0,4.86-3s2.77,3.05,4.7,2.72a1.68,1.68,0,0,0,0-2.35c-1.12-1.18-2-2.66-3.47-2.46s-3.29.27-4.08,1S416.14,203.43,416.14,203.43Z"/><ellipse id="Ellipse_103" data-name="Ellipse 103" class="cls-28" cx="416.81" cy="203.19" rx="0.41" ry="0.78"/><ellipse id="Ellipse_104" data-name="Ellipse 104" class="cls-28" cx="425.71" cy="203.19" rx="0.41" ry="0.78"/></g><g id="Groupe_155" data-name="Groupe 155"><ellipse id="Ellipse_105" data-name="Ellipse 105" class="cls-27" cx="359.52" cy="432.17" rx="14.91" ry="4.85"/><ellipse id="Ellipse_106" data-name="Ellipse 106" class="cls-27" cx="421.86" cy="432.17" rx="14.91" ry="4.85"/><g id="Groupe_153" data-name="Groupe 153"><path id="Tracé_766" data-name="Tracé 766" class="cls-23" d="M295.44,355.89a1.42,1.42,0,0,0,.62,1.91l21.19,10.83a1.42,1.42,0,0,0,1.91-.62l43.65-85.42a1.43,1.43,0,0,0-.62-1.92L341,269.85a1.42,1.42,0,0,0-1.91.62Z"/><circle id="Ellipse_107" data-name="Ellipse 107" class="cls-24" cx="345.29" cy="287.6" r="7.46"/><path id="Tracé_767" data-name="Tracé 767" class="cls-19" d="M306.35,352.88h0a1.25,1.25,0,0,0,2.22,1.13l26.68-52.21a1.24,1.24,0,0,0-2.19-1.18l0,.05h0Z"/><path id="Tracé_768" data-name="Tracé 768" class="cls-19" d="M313,356.28a1.24,1.24,0,1,0,2.2,1.16v0l26.67-52.2h0a1.25,1.25,0,1,0-2.22-1.13Z"/></g><g id="Groupe_154" data-name="Groupe 154"><path id="Tracé_769" data-name="Tracé 769" class="cls-18" d="M381.25,358.2l-3,5.85s-5.18-1.59-3.95,3a81.28,81.28,0,0,0,14.87-.89s2.07.72,2.42-.52-1.27-5.46-2.49-5.4S381.25,358.2,381.25,358.2Z"/><path id="Tracé_770" data-name="Tracé 770" class="cls-18" d="M404.81,355.46s-2.91,7.49-1.68,7.84,12.32,1.47,13.15,1.84,4.93.58,5.22-1.88a3,3,0,0,0-2.19-3.16s-4.52-.61-5.94-4.63S404.81,355.46,404.81,355.46Z"/><path id="Tracé_772" data-name="Tracé 772" class="cls-3" d="M412.77,209.41v-6.07s-6.71-13.41-1.28-13.41,6.07,12.13,6.07,12.13v8.63Z"/><path id="Tracé_773" data-name="Tracé 773" class="cls-3" d="M355.28,273s-3.52-1.92-4.16,0-2.55,6.07,0,6.38,5.11-1.91,5.11-1.91Z"/><path id="Tracé_774" data-name="Tracé 774" class="cls-39" d="M372.57,285.91s-1.93,2.54.86,27.32,1.19,42.83,6.48,42.58c0,0-1.38,5.37,3.12,5.57s6.56.51,6.91-.73.9-7-.32-6.93c0,0,.07,1.63.58-4.93s-.94-37.53.91-41.7l7.22,14.77s.33,6.93,1.7,10.13,4.29,21.86,4.29,21.86l-.28,2.87s9.86,1.17,10.19-.48a9.89,9.89,0,0,0-.23-4.89c-.45-.79-.45-.79.29-2.46a5,5,0,0,0,.22-4.09c-.47-1.21-1.71-27.69-1.71-27.69s-2.31-32.15-7.28-33.56S372.57,285.91,372.57,285.91Z"/><circle id="Ellipse_108" data-name="Ellipse 108" class="cls-3" cx="377.15" cy="216.63" r="8.53"/><path id="Tracé_775" data-name="Tracé 775" class="cls-3" d="M372.66,220.67s2.24,11.68,1.35,13.92,12.57-.89,12.57-.89-2.7-11.68-2.25-14.37S372.66,220.67,372.66,220.67Z"/><path id="Tracé_776" data-name="Tracé 776" class="cls-18" d="M376.89,206.09a4.94,4.94,0,0,0-2.13.1,5.49,5.49,0,0,0-1.52,1,17.41,17.41,0,0,1-2.6,1.71,6.33,6.33,0,0,0-2,1.42,4.4,4.4,0,0,0-.57,1.07,13,13,0,0,0-.68,7,3.25,3.25,0,0,0,.3,1c.47.86,1.5,1.2,2.37,1.65a20.35,20.35,0,0,1,4.25,3.57A8.08,8.08,0,0,0,376,225.9c1.93,1.06,4.28.71,6.45.34a1.16,1.16,0,0,0,1.16-1.17h0l1.71-7.69a12.47,12.47,0,0,0,.44-3.49,9.94,9.94,0,0,0-2.5-5.78C381.64,206.56,379,206.31,376.89,206.09Z"/><path id="Tracé_777" data-name="Tracé 777" class="cls-40" d="M370.61,235.28s.64-4.47,4.47-4.79a30.93,30.93,0,0,0,6.39-1.28c.32,0,4.47.32,6.39,2.24,0,0,1.27,1.92,1.91.64s.65-1.92,1.92-1.28,1.28-1.92,3.51-1.6,8,14.7,8,14.7l-1.92,2.23s-2.56,17.25,1.92,24.59,6.38,15.34,1.92,16.93-35.78,16-34.5,7,.32-23-.95-23.32-8.31-25.54-8.31-25.54a9.93,9.93,0,0,1,5.75-7.35C372.2,236.24,370.61,235.28,370.61,235.28Z"/><path id="Tracé_778" data-name="Tracé 778" class="cls-41" d="M393.61,230.49l1.59-1.27s2.88,0,3.2-.64,1.92-.65,3.19-1.28-.31-1.6,1.28-2.24,1.6,0,1.6-1.59,4.15-3.2,4.47-5.11,3.51-10.86,3.51-10.86l6.07,1.92-1.6,11.5s0,5.75-2.87,9.58-9.26,13.41-12.46,13.74S393.61,230.49,393.61,230.49Z"/><path id="Tracé_779" data-name="Tracé 779" class="cls-41" d="M363.26,244.23l-1.92,1.59s-.64,7-.64,7.35.64,4.15,0,4.47-1.92,6.71-1.6,7h0v1l-4.47,7v6.7l10.54-6.7s6.07-.65,5.11-6.08S363.26,244.23,363.26,244.23Z"/></g></g><g id="Groupe_156" data-name="Groupe 156"><path id="Tracé_780" data-name="Tracé 780" class="cls-25" d="M351.28,291.26a7.24,7.24,0,0,0,1-4.07,1.64,1.64,0,0,0-2,.35l-2.81,4.89a1.58,1.58,0,0,0,.61,1.8A7.2,7.2,0,0,0,351.28,291.26Z"/><circle id="Ellipse_109" data-name="Ellipse 109" class="cls-29" cx="344.77" cy="287.6" r="3.52"/><path id="Tracé_781" data-name="Tracé 781" class="cls-27" d="M346.74,290.05l1.13-1.95h0l1.56.89a1.13,1.13,0,0,1,.41,1.54h0a1.12,1.12,0,0,1-1.53.42h0l-1.56-.9Z"/><path id="Tracé_782" data-name="Tracé 782" class="cls-35" d="M346.78,289.82l.91-1.58a.21.21,0,0,1,.29-.08h0l1.38.79a1.14,1.14,0,0,1,.41,1.54h0a1.13,1.13,0,0,1-1.54.41h0l-1.37-.79a.21.21,0,0,1-.08-.29Z"/><path id="Tracé_783" data-name="Tracé 783" class="cls-27" d="M347.48,290.47a3.25,3.25,0,0,0,1.13-2l-.24-.14-1.13,2Z"/><circle id="Ellipse_110" data-name="Ellipse 110" class="cls-35" cx="345.38" cy="287.95" r="3.23"/><path id="Tracé_784" data-name="Tracé 784" class="cls-27" d="M341.68,288.48s3.07.2,3.59-3.93l-1.66.07-1.28,1.09Z"/><path id="Tracé_785" data-name="Tracé 785" class="cls-29" d="M341.65,288.46s3.07.2,3.59-3.93l-1.66.07-1.28,1.09Z"/><path id="Tracé_786" data-name="Tracé 786" class="cls-29" d="M341.47,288.38a2,2,0,0,1-.42-.78c-.23-.86.18-1.83-.18-2.65a.41.41,0,0,1,.42.41h0v.05a1.62,1.62,0,0,0,.29-1.44.93.93,0,0,1,.79.64,1,1,0,0,1,1.16-.45.88.88,0,0,1,.45.74,2.41,2.41,0,0,1-.14.89C343.58,286.64,342.72,289.74,341.47,288.38Z"/><ellipse id="Ellipse_111" data-name="Ellipse 111" class="cls-35" cx="343.75" cy="290.75" rx="0.3" ry="0.56" transform="translate(-79.71 443.65) rotate(-60.08)"/><ellipse id="Ellipse_112" data-name="Ellipse 112" class="cls-35" cx="346.97" cy="285.15" rx="0.3" ry="0.56" transform="translate(-73.25 443.64) rotate(-60.08)"/></g></g><g id="man"><g id="Groupe_2146" data-name="Groupe 2146"><path id="Tracé_647" data-name="Tracé 647" class="cls-42" d="M390.72,136.67s-2.74,2.53-2.2,4.33,3,3,3.33,5.2,1.67,3.4,2.86,3.4h5.72s.88-1.55-1.25-2-2.93-3.05-2.8-5.45a43.53,43.53,0,0,0-.2-5.59l-4.53-1.07Z"/><path id="Tracé_648" data-name="Tracé 648" class="cls-42" d="M424.23,143.57s-.66,5.33.53,5.93,15.53.4,15.53.4,0-1.8-2.47-2.2-6.79-1.87-7.53-5.13S424.23,143.57,424.23,143.57Z"/><path id="Tracé_649" data-name="Tracé 649" class="cls-43" d="M437.19,62.17s-.81,10.1-1.76,22.25c-1.29,16.49-2.85,36.75-3,40.59-.27,6.66-1.34,17.32-1.34,17.32s-2.53,2.54-7.59,1.47a174.55,174.55,0,0,1-5.81-31.32c0-.27,0-.53-.06-.79-1.19-16.4-3.06-50.91-3.06-50.91Z"/><path id="Tracé_650-2" data-name="Tracé 650-2" class="cls-44" d="M437.19,62.17s-.81,10.1-1.76,22.25l-17.74,28.06-.06-.79c-1.2-16.4-3.06-50.91-3.06-50.91Z"/><path id="Tracé_651-2" data-name="Tracé 651-2" class="cls-43" d="M433.49,63.37S418.9,100,409.31,117.15s-12.6,22-12.6,22-5.5-2.2-6-3.7c0,0,3.67-33.19,10.1-41.28,3.63-4.57,7.9-18.29,8.09-23.09s1.3-14.29,1.3-14.29Z"/></g><g id="Groupe_2147" data-name="Groupe 2147"><path id="Tracé_652-2" data-name="Tracé 652-2" class="cls-45" d="M451.82,75.3a60.12,60.12,0,0,1,3.59,5.55,13.36,13.36,0,0,1,0,4.59c-.23.14-.48.08-.73-.43s-.74-2.32-.91-2.13.91,5.56-.07,6-3.95-1.48-5-3.73-.26-7.87-.39-8.27C447.27,73.5,451.82,75.3,451.82,75.3Z"/><path id="Tracé_653-2" data-name="Tracé 653-2" class="cls-46" d="M450.73,77.72c1.86-.39,2-.64,2-.64s-.31-18.24-.26-19.95,7.29-24.82,7.29-24.82L447.4,19.8s-4.56,32.72-4.59,37.07c-.05,7.17,5.26,20.72,5.26,20.72A5.22,5.22,0,0,0,450.73,77.72Z"/></g><path id="Tracé_654-2" data-name="Tracé 654-2" class="cls-45" d="M451.62,16.67s3.3,11.59,8.63,14.3a15.91,15.91,0,0,0-.21-6.15c.73-.53,1.37-1,1.93-1.46a32.78,32.78,0,0,0,2.82-2.43l-.66-5.63-.45-3.82a17.22,17.22,0,0,1-2.75,2.44A14.24,14.24,0,0,1,451.62,16.67Z"/><path id="Tracé_655-2" data-name="Tracé 655-2" class="cls-47" d="M460.93,13.92a11.08,11.08,0,0,0,1,9.44,32.78,32.78,0,0,0,2.82-2.43l-.66-5.63A11.36,11.36,0,0,0,460.93,13.92Z"/><path id="Tracé_656-2" data-name="Tracé 656-2" class="cls-45" d="M466.13,22.05s-7.82-5.47-4.33-10.29,4.82-8.77,10-5.48,4.77,5.83,4,7.72S468.26,23.35,466.13,22.05Z"/><path id="Tracé_657-2" data-name="Tracé 657-2" class="cls-48" d="M409.18,61.66c2.26,5.86,26.69,18.91,27.23,15.37a39,39,0,0,1,1.67-6.84c.25-.73.53-1.5.85-2.3a56.07,56.07,0,0,1,9.95-15.81c.38-.44.78-.89,1.19-1.34a53.79,53.79,0,0,0,5.6-7.24c3.08-4.78,5-9.59,4.91-13.08v-.05C455.74,26.52,456,16.24,456,16.24s-19.4-1.2-35.86,21c0,0-1.66,2.48-3.7,5.89-2.48,4.14-5.52,9.66-6.83,13.8C409,58.94,408.77,60.6,409.18,61.66Z"/><path id="Tracé_658-2" data-name="Tracé 658-2" class="cls-49" d="M463,1.52c0-.14-.18-.31-.57-.54a1.75,1.75,0,0,1,.87.18A2.35,2.35,0,0,1,465.62,0a1.39,1.39,0,0,0-1.07.59c1.75-.59,4.63-.19,11.08,3.86,8.49,5.34,2.56,9.58,1.06,9.66s-3.42-3.3-5.64-4.24-4.28,2-5.23,2-.26-.56-1-1.52-1.7.64-2,1.86-2.36,1.94-2.36,1.94l-.59-2.2c-.58-2.2,1.43-9.19,2.75-10.21Z"/><path id="Tracé_659-2" data-name="Tracé 659-2" class="cls-46" d="M409.62,57c24.08-1.29,34.17-27.17,34.17-27.17s-15.15,6.65-27.35,13.37C414,47.31,410.92,52.83,409.62,57Z"/><g id="Groupe_2152" data-name="Groupe 2152"><g id="Groupe_2148" data-name="Groupe 2148"><path id="Tracé_660-2" data-name="Tracé 660-2" class="cls-50" d="M340.6,146.54a3.22,3.22,0,1,0-3.21,3.21h0a3.21,3.21,0,0,0,3.21-3.21Z"/><path id="Tracé_661-2" data-name="Tracé 661-2" class="cls-46" d="M339.35,146.54a2,2,0,1,0-2,2h0A2,2,0,0,0,339.35,146.54Z"/></g><g id="Groupe_2149" data-name="Groupe 2149"><path id="Tracé_662-2" data-name="Tracé 662-2" class="cls-51" d="M363.14,143.29c.6,0,12.6-.11,20.86-9,5.67-6.12,8.12-14.77,7.28-25.73-1.7-22.39,2-40.5,10-49.7a18.42,18.42,0,0,1,13.26-6.64c8.83-.47,17.1,9.67,17.19,9.77l3-2.41c-.39-.48-9.62-11.75-20.37-11.19a22.2,22.2,0,0,0-15.94,7.95C394,61.41,390.75,68.69,388.88,78a113.29,113.29,0,0,0-1.42,30.87c.76,9.86-1.35,17.54-6.27,22.83-7.15,7.71-17.91,7.8-18,7.8h0v3.83Z"/></g><path id="Tracé_663-2" data-name="Tracé 663-2" class="cls-52" d="M329.85,145a4.63,4.63,0,0,0,3.28,1.35h34.08a2.81,2.81,0,0,0,2.81-2.8,2.87,2.87,0,0,0-.11-.77c-1.39-4.92-4.39-13.49-8.92-16.28a9.18,9.18,0,0,0-2.76-1.06c-8-1.82-23.61,2.78-29.06,13.7,0,0-.13.23-.32.64A4.66,4.66,0,0,0,329.85,145Z"/><g id="Groupe_2150" data-name="Groupe 2150"><path id="Tracé_664-2" data-name="Tracé 664-2" class="cls-49" d="M429.93,62.36l46.1,61,17.5,23.16,3-2.16L479.7,120.69,435.47,58.31Z"/><path id="Tracé_665-2" data-name="Tracé 665-2" class="cls-50" d="M476,123.36l17.5,23.16,3-2.16L479.7,120.69Z"/></g><path id="Rectangle_41" data-name="Rectangle 41" class="cls-46" d="M488.77,144.06h18.36a1.16,1.16,0,0,1,1.16,1.17h0v3.17a1.16,1.16,0,0,1-1.16,1.16H488.77a1.16,1.16,0,0,1-1.17-1.16h0v-3.18A1.16,1.16,0,0,1,488.77,144.06Z"/><path id="Rectangle_42" data-name="Rectangle 42" class="cls-50" d="M493,144.06h14.16a1.16,1.16,0,0,1,1.16,1.17h0v3.17a1.16,1.16,0,0,1-1.16,1.16H493a1.16,1.16,0,0,1-1.16-1.16h0v-3.18A1.16,1.16,0,0,1,493,144.06Z"/><path id="Tracé_666-2" data-name="Tracé 666-2" class="cls-18" d="M329.85,145a4.63,4.63,0,0,0,3.28,1.35h34.08a2.8,2.8,0,0,0,2.8-2.8,2.86,2.86,0,0,0-.1-.77c-1.39-4.92-4.39-13.49-8.92-16.28a9.18,9.18,0,0,0-2.76-1.06C355.12,131.32,346.64,143.87,329.85,145Z"/><g id="Groupe_2151" data-name="Groupe 2151"><path id="Tracé_667-2" data-name="Tracé 667-2" class="cls-53" d="M364.59,142.08a7.68,7.68,0,1,0-7.68,7.67h0A7.67,7.67,0,0,0,364.59,142.08Z"/><path id="Tracé_668-2" data-name="Tracé 668-2" class="cls-54" d="M361.6,142.08a4.69,4.69,0,1,0-4.69,4.69A4.69,4.69,0,0,0,361.6,142.08Z"/></g></g><path id="Tracé_669-2" data-name="Tracé 669-2" class="cls-45" d="M407.37,48a46.87,46.87,0,0,1,1,5,9.22,9.22,0,0,1-.82,3c-.2,0-.82.13-.86-.3s.2-.88,0-.78,0,1.73-.87,1.79-3.37-.57-3.5-2.48,2-5.71,2.07-6C404.63,45.4,407.37,48,407.37,48Z"/><path id="Tracé_670-2" data-name="Tracé 670-2" class="cls-48" d="M405.6,48.36a9.43,9.43,0,0,0,3.35,0s11.17-11.31,12.74-12.25,23-1.74,23-1.74,8.58,0,10.62-4.41c1.78-3.84.47-7.12-1.42-9.53a8.86,8.86,0,0,0-9.53-3c-7.83,2.36-23.41,7.18-26.32,9-6.47,4-14.76,20-14.76,20A3.45,3.45,0,0,0,405.6,48.36Z"/></g></g><g id="Groupe_2156" data-name="Groupe 2156"><path id="Tracé_671-2" data-name="Tracé 671-2" class="cls-55" d="M422.56,369.78v9.3a3.53,3.53,0,0,1-3.56,3.49H362.92a3.55,3.55,0,0,1-3.56-3.49v-9.3a3.53,3.53,0,0,1,3.56-3.48H419A3.52,3.52,0,0,1,422.56,369.78Z"/><path id="Tracé_672-2" data-name="Tracé 672-2" class="cls-56" d="M422.56,377.39v1.69a3.52,3.52,0,0,1-3.56,3.49H362.92a3.53,3.53,0,0,1-3.56-3.49v-1.83h62.18A3.49,3.49,0,0,1,422.56,377.39Z"/><g id="Groupe_2154" data-name="Groupe 2154"><path id="Tracé_673-2" data-name="Tracé 673-2" class="cls-57" d="M372.86,382.57,370.34,392h0l-10.53,39H358.7l6.08-32.39a.3.3,0,0,0,0-.1l3-16Z"/></g><path id="Tracé_674" data-name="Tracé 674" class="cls-58" d="M372.86,382.57,370.34,392h0c-.15.07-4.75,2.4-5.53,6.55l3-16Z"/><g id="Groupe_2155" data-name="Groupe 2155"><path id="Tracé_675" data-name="Tracé 675" class="cls-57" d="M422.56,431h-1.11l-8.57-31.8h0L410.93,392h0l-2.53-9.38,5.05-.09,1.72,9.16,1.29,6.86a.3.3,0,0,0,0,.1Z"/></g><path id="Tracé_676" data-name="Tracé 676" class="cls-57" d="M405.47,394.85h0S405.43,394.81,405.47,394.85Z"/><path id="Tracé_677" data-name="Tracé 677" class="cls-58" d="M415.17,391.64a13.41,13.41,0,0,0-2.29,7.54L410.93,392h0l-2.53-9.38,5.05-.09Z"/></g><path id="Tracé_680" data-name="Tracé 680" class="cls-59" d="M0,431H665.24"/></g></g></g></g></svg>