<svg xmlns="http://www.w3.org/2000/svg" viewBox="0 0 174.2 212.93"><defs><style>.cls-1{opacity:0.1;isolation:isolate;}.cls-2{fill:#5ccb8b;}.cls-3{fill:#11404e;}.cls-4{fill:#59b5a1;}.cls-5{fill:#81ade1;}.cls-6{fill:#645cb7;}.cls-7{fill:#0c5769;}.cls-8{fill:#410995;stroke:#410995;}</style></defs><g id="Calque_2" data-name="Calque 2"><g id="Calque_1-2" data-name="Calque 1"><ellipse id="Ellipse_114" data-name="Ellipse 114" class="cls-1" cx="99.39" cy="205.76" rx="51.51" ry="7.17"/><g id="Groupe_167" data-name="Groupe 167"><path id="Tracé_831" data-name="Tracé 831" class="cls-2" d="M83.34,93.24S76.22,64.74,59.07,57,41.49,70.84,52.79,87.07s40.8,34.65,40.8,34.65Z"/><path id="Tracé_832" data-name="Tracé 832" class="cls-3" d="M93.59,123a1.33,1.33,0,0,0,.7-.21,1.26,1.26,0,0,0,.34-1.74L60.53,69.92a1.25,1.25,0,1,0-2.12,1.33.21.21,0,0,0,0,.06l34.1,51.11A1.24,1.24,0,0,0,93.59,123Z"/><path id="Tracé_833" data-name="Tracé 833" class="cls-4" d="M144.47,135.15s5.24,8.75-3,17S107,154.4,107,154.4s2.85-12.9,14-18S141.22,127.39,144.47,135.15Z"/><path id="Tracé_834" data-name="Tracé 834" class="cls-5" d="M130,62.47c2.15-10.22-.19-19.5-7.3-24.58C131.24,21.07,128.79,2.68,114,.36,99.06-2,80.37,7.14,85,30.91a66.72,66.72,0,0,0,1.82,7.21C76.72,43.37,70,53.42,73.63,68.92c.07.32.15.66.24,1-6,7.49-8.77,18-5.79,31.82,7.68,35.64,28.24,41.91,28.24,41.91s18.63-5.09,33.23-30.54C140.59,93.83,141.08,73,130,62.47Z"/><path id="Tracé_835" data-name="Tracé 835" class="cls-4" d="M93.23,159.17s-4.35-33-7.85-36.48-4.71,1.55-4.71,1.55-3-25.39-9.82-28.86-10.6,4.27-10.6,4.27,2.47-27.41-18.5-29.54c-10.06-1-12.34,10.94-12.34,10.94S16.06,64.26,3.56,78.66C-6.9,90.71,9,102,9,102s-12.24,7.86-3.27,19,24.07,8.07,24.07,8.07-8.58,8.66-.65,12.66,27.24.16,27.24.16-10.17,4.63-2.44,8.53S93.23,159.17,93.23,159.17Z"/><path id="Tracé_836" data-name="Tracé 836" class="cls-3" d="M105.85,33.68a1.26,1.26,0,0,0-1.35,1.16L93.83,175.59A1.24,1.24,0,0,0,95,176.93h.1a1.25,1.25,0,0,0,1.25-1.16L107,35a1.26,1.26,0,0,0-1.14-1.35Z"/><path id="Tracé_837" data-name="Tracé 837" class="cls-3" d="M134.24,147.47l-6.62-2.25c2.64-1,5-1.76,6.59-2.27a1.27,1.27,0,0,0,.82-1.59,1.26,1.26,0,0,0-1.59-.81h0c-.87.28-21.36,6.9-26.07,11.62-4.87,4.88-4.46,19.17-4.44,19.77a1.25,1.25,0,0,0,1.25,1.22h0a1.26,1.26,0,0,0,1.22-1.3h0c-.13-3.83.3-14.5,3.71-17.92,2.13-2.13,8.64-5,14.75-7.34l9.53,3.24a1.25,1.25,0,0,0,.81-2.37Z"/><path id="Tracé_838" data-name="Tracé 838" class="cls-3" d="M94.3,158.53c-7.78-13-27.66-30.93-44.14-44.52l.38-23.55a1.26,1.26,0,0,0-2.51,0L47.69,112c-12-9.77-21.63-16.91-22.55-17.6a1.26,1.26,0,0,0-1.49,2c.19.14,6.9,5.1,16.14,12.47H20.19a1.26,1.26,0,0,0,0,2.51H42.91c6.4,5.17,13.7,11.26,20.79,17.6l-15,2.73a1.26,1.26,0,0,0,.22,2.5l.23,0,16.94-3.08c11,10,21.17,20.47,26.1,28.71a1.24,1.24,0,0,0,1.07.62,1.44,1.44,0,0,0,.65-.18A1.27,1.27,0,0,0,94.3,158.53Z"/><path id="Tracé_839" data-name="Tracé 839" class="cls-2" d="M102.47,145.94s-6.16-35.14-1.21-35.14a6.22,6.22,0,0,1,6.17,4.15s-2.93-20.11,2.5-25.56,9.21-4.19,9.21-4.19-10.87-20.74,8.37-29.33c9.24-4.12,15.12,2,15.12,2s7.42-20.13,23.79-10.37c13.7,8.17,2.1,23.88,2.1,23.88s9.21,7.55,4.18,20.95-15.48,11.31-15.48,11.31,6.27,8.37,0,14.66-20,3.35-20,3.35,6.12,1.83,0,8S102.47,145.94,102.47,145.94Z"/><path id="Tracé_840" data-name="Tracé 840" class="cls-3" d="M153.49,91.54l-16,5.09c9.38-11.32,17.09-20,17.29-20.23A1.26,1.26,0,1,0,153,74.68l0,0c-1,1.08-12.19,13.75-24,28.4l1.46-16.56a1.26,1.26,0,0,0-1.13-1.37,1.24,1.24,0,0,0-1.37,1.12v0l-1.8,20.34c-11.95,15.11-23.64,31.47-24.9,39.06-2.55,15.34-4.65,32.13-4.67,32.3a1.25,1.25,0,0,0,1.09,1.4h.15a1.26,1.26,0,0,0,1.25-1.1c0-.16,2.12-16.91,4.65-32.2,1.4-8.4,17.2-29.22,30.87-45.93l19.67-6.28a1.25,1.25,0,0,0,.81-1.57h0a1.23,1.23,0,0,0-1.51-.85Z"/><rect id="Rectangle_316" data-name="Rectangle 316" class="cls-6" x="77.25" y="165.62" width="40.92" height="38.22"/><rect id="Rectangle_317" data-name="Rectangle 317" class="cls-7" x="67.72" y="158.08" width="59.83" height="3.12"/><path id="Tracé_841" data-name="Tracé 841" class="cls-8" d="M71.39,161.21h52.49V168H71.39Z"/></g></g></g></svg>