<svg xmlns="http://www.w3.org/2000/svg" viewBox="0 0 159.42 209.69"><defs><style>.cls-1{opacity:0.1;isolation:isolate;}.cls-2{fill:#3fc482;}.cls-3{fill:#59b5a1;}.cls-4{fill:#5852ab;}.cls-5{fill:#0c5769;}.cls-6{fill:#3a0d87;}</style></defs><g id="Calque_2" data-name="Calque 2"><g id="Calque_1-2" data-name="Calque 1"><ellipse id="Ellipse_113" data-name="Ellipse 113" class="cls-1" cx="46.15" cy="203.6" rx="43.68" ry="6.09"/><g id="Groupe_165" data-name="Groupe 165"><g id="Groupe_163" data-name="Groupe 163"><path id="Tracé_787" data-name="Tracé 787" class="cls-2" d="M14.19,128.64A9.58,9.58,0,0,1,7,131.06a9.61,9.61,0,0,1-7-2.93,9.63,9.63,0,0,1,7.19-2.42A9.65,9.65,0,0,1,14.19,128.64Z"/><g id="Groupe_162" data-name="Groupe 162"><path id="Tracé_788" data-name="Tracé 788" class="cls-2" d="M137.17,64.25A144.47,144.47,0,0,0,120,75.66,192.32,192.32,0,0,0,104.3,89a194.81,194.81,0,0,0-26.87,31.32,192.75,192.75,0,0,0-19.69,36.37,201.46,201.46,0,0,0-11.4,39.84l2.92.49A199.18,199.18,0,0,1,59.9,157.58,191,191,0,0,1,78.82,121.3,193.8,193.8,0,0,1,105,89.79a190.83,190.83,0,0,1,15.42-13.55,143.51,143.51,0,0,1,16.91-11.62Z"/><path id="Tracé_789" data-name="Tracé 789" class="cls-2" d="M159.42,48.68c-.32,4.59-3.36,9.67-8.44,13.25s-10.89,4.74-15.31,3.5c.33-4.6,3.38-9.68,8.45-13.26S155,47.43,159.42,48.68Z"/><path id="Tracé_790" data-name="Tracé 790" class="cls-2" d="M125.25,44.78c3.39,3.11,5.48,8.66,5.12,14.87s-3.06,11.49-6.78,14.19c-3.39-3.11-5.48-8.66-5.12-14.87S121.53,47.48,125.25,44.78Z"/><path id="Tracé_791" data-name="Tracé 791" class="cls-2" d="M74,0C70,2.37,66.9,7.41,66,13.57s.74,11.87,3.86,15.24c3.93-2.37,7.07-7.41,7.94-13.57S77.08,3.38,74,0Z"/><path id="Tracé_792" data-name="Tracé 792" class="cls-2" d="M50.79,21.22c-.48,3.56,1.05,8,4.36,11.49s7.57,5.35,11.15,5.1c.48-3.56-1-7.94-4.36-11.48S54.37,21,50.79,21.22Z"/><path id="Tracé_793" data-name="Tracé 793" class="cls-2" d="M66.62,38.33c3,2,7.61,2.44,12.22.94s8.06-4.59,9.35-7.94c-3-1.95-7.61-2.44-12.22-.94S67.91,35,66.62,38.33Z"/><path id="Tracé_794" data-name="Tracé 794" class="cls-2" d="M62.46,52.51c3,2,7.62,2.43,12.22.94s8.06-4.59,9.36-8c-3-2-7.62-2.43-12.22-.94S63.76,49.16,62.46,52.51Z"/><path id="Tracé_795" data-name="Tracé 795" class="cls-2" d="M57.76,68.56c3,2,7.61,2.43,12.22.94s8.06-4.59,9.35-7.94c-3-2-7.61-2.44-12.22-.94S59.05,65.21,57.76,68.56Z"/><path id="Tracé_796" data-name="Tracé 796" class="cls-2" d="M54.59,83.14c3,2,7.62,2.43,12.22.94s8.06-4.59,9.36-8c-3-1.95-7.61-2.43-12.22-.93S55.9,79.78,54.59,83.14Z"/><path id="Tracé_797" data-name="Tracé 797" class="cls-2" d="M53.81,83.25c-3.41,1.12-8,.4-12.06-2.23s-6.61-6.5-7-10.07c3.41-1.12,8-.4,12,2.23S53.41,79.68,53.81,83.25Z"/><path id="Tracé_798" data-name="Tracé 798" class="cls-2" d="M46.57,35.09c-.49,3.56,1,7.94,4.35,11.48s7.57,5.36,11.16,5.1c.48-3.56-1-7.94-4.36-11.48S50.14,34.84,46.57,35.09Z"/><path id="Tracé_799" data-name="Tracé 799" class="cls-2" d="M42,51.44c-.48,3.57,1,8,4.36,11.49s7.57,5.36,11.15,5.1c.48-3.56-1-7.94-4.36-11.48S45.53,51.2,42,51.44Z"/><path id="Tracé_800" data-name="Tracé 800" class="cls-2" d="M105.09,54.93c4.09,2.09,7.57,6.89,8.87,13s.11,11.89-2.76,15.48c-4.09-2.09-7.58-6.89-8.89-13S102.22,58.53,105.09,54.93Z"/><path id="Tracé_801" data-name="Tracé 801" class="cls-2" d="M91.47,67.48c4.1,2.09,7.58,6.88,8.89,13s.1,11.89-2.77,15.48C93.5,93.84,90,89,88.72,83S88.61,71.08,91.47,67.48Z"/><path id="Tracé_802" data-name="Tracé 802" class="cls-2" d="M75.82,80.38c4.49,1,9.08,4.72,11.89,10.26S90.85,102.1,89,106.32c-4.49-1-9.08-4.72-11.9-10.26S74,84.59,75.82,80.38Z"/><path id="Tracé_803" data-name="Tracé 803" class="cls-2" d="M64.79,96.52c4.09-.17,8.91,2,12.58,6.18S82.66,111.91,82,116c-4.1.18-8.91-2-12.59-6.18S64.12,100.58,64.79,96.52Z"/><path id="Tracé_804" data-name="Tracé 804" class="cls-2" d="M56.78,106.67c4.1-.17,8.91,2,12.59,6.18s5.29,9.2,4.62,13.26c-4.09.18-8.91-2-12.58-6.18S56.12,110.73,56.78,106.67Z"/><path id="Tracé_805" data-name="Tracé 805" class="cls-2" d="M52.21,121.65c3.51-.15,7.63,1.73,10.79,5.3s4.53,7.88,4,11.36c-3.51.15-7.63-1.73-10.79-5.29S51.64,125.12,52.21,121.65Z"/><path id="Tracé_806" data-name="Tracé 806" class="cls-2" d="M47.78,137.26c2.55-1.45,6.35-1.62,10.08-.18s6.42,4.12,7.34,6.92c-2.55,1.44-6.35,1.61-10.08.18S48.7,140.05,47.78,137.26Z"/><path id="Tracé_807" data-name="Tracé 807" class="cls-2" d="M46,150.13a9.76,9.76,0,0,1,7.61-2.72,9.77,9.77,0,0,1,7.35,3.37,9.79,9.79,0,0,1-7.61,2.72A9.77,9.77,0,0,1,46,150.13Z"/><path id="Tracé_808" data-name="Tracé 808" class="cls-2" d="M151,82.86c-3.9,2.43-9.8,2.93-15.66.89s-10.2-6.07-11.78-10.4c3.91-2.42,9.8-2.92,15.67-.89S149.41,78.54,151,82.86Z"/><path id="Tracé_809" data-name="Tracé 809" class="cls-2" d="M138.6,93.08c-3.91,2.42-9.8,2.92-15.67.89s-10.19-6.08-11.77-10.4c3.91-2.43,9.8-2.92,15.67-.89S137,88.76,138.6,93.08Z"/><path id="Tracé_810" data-name="Tracé 810" class="cls-2" d="M125.4,105.68c-3.9,2.42-9.8,2.92-15.66.89S99.54,100.49,98,96.16c3.91-2.42,9.81-2.92,15.67-.88S123.82,101.35,125.4,105.68Z"/><path id="Tracé_811" data-name="Tracé 811" class="cls-2" d="M110.5,114.06c-3.18,2-8,2.37-12.75.72s-8.29-4.94-9.57-8.46c3.18-2,8-2.38,12.74-.72S109.22,110.54,110.5,114.06Z"/><path id="Tracé_812" data-name="Tracé 812" class="cls-2" d="M99.34,122.06c-2.59,1.68-6.49,2.07-10.34.73s-6.68-4.05-7.68-7c2.59-1.69,6.49-2.07,10.34-.74S98.34,119.13,99.34,122.06Z"/><path id="Tracé_813" data-name="Tracé 813" class="cls-2" d="M92.67,132.35c-2.59,1.68-6.49,2.07-10.34.73s-6.68-4.05-7.68-7c2.59-1.69,6.49-2.07,10.34-.73S91.67,129.42,92.67,132.35Z"/><path id="Tracé_814" data-name="Tracé 814" class="cls-2" d="M85.37,141.67c-2.1,1.79-5.63,2.66-9.41,2.05s-6.85-2.56-8.28-4.92c2.1-1.8,5.63-2.66,9.41-2.05S83.94,139.29,85.37,141.67Z"/><path id="Tracé_815" data-name="Tracé 815" class="cls-2" d="M78.31,153.39A10.3,10.3,0,0,1,70,151.55c-2.78-1.91-4.5-4.62-4.73-7.08a10.24,10.24,0,0,1,8.3,1.84A10.37,10.37,0,0,1,78.31,153.39Z"/><path id="Tracé_816" data-name="Tracé 816" class="cls-2" d="M70.44,160.4a8.77,8.77,0,0,1-8.54-8.57,8.75,8.75,0,0,1,8.54,8.57Z"/><path id="Tracé_817" data-name="Tracé 817" class="cls-2" d="M65.23,162.23A4.89,4.89,0,0,1,60,157.69a4,4,0,0,1,0-.69,4.9,4.9,0,0,1,5.22,4.54q0,.35,0,.69Z"/><path id="Tracé_818" data-name="Tracé 818" class="cls-2" d="M63.55,165.69a4.9,4.9,0,0,1-5.22-4.56,3.86,3.86,0,0,1,0-.68A4.91,4.91,0,0,1,63.55,165Q63.57,165.34,63.55,165.69Z"/><path id="Tracé_819" data-name="Tracé 819" class="cls-2" d="M48.38,191.86a260.64,260.64,0,0,1-2.71-41.77c0-7,.44-14,1-20.9S48,115.32,49,108.42a385.67,385.67,0,0,1,8.22-40.94q2.6-10.1,5.74-20.06c2.11-6.63,4.36-13.22,7-19.69l.81.33c-2.49,6.45-4.66,13.06-6.67,19.69s-3.84,13.33-5.48,20.07a380.58,380.58,0,0,0-7.67,40.85c-.88,6.88-1.63,13.76-2.07,20.67s-.76,13.83-.73,20.75a256,256,0,0,0,3.2,41.29Z"/><g id="Groupe_161" data-name="Groupe 161"><path id="Tracé_820" data-name="Tracé 820" class="cls-3" d="M30.54,149.45c-6.48-9.52-13.31-18.83-20.6-27.76l.12-.1c7.47,8.79,14.49,18,21.18,27.37a328.9,328.9,0,0,1,18.63,29.22c1.37,2.45,2.69,4.92,4,7.41l-1.5.86c-1.24-2.53-2.53-5-3.85-7.51A325.67,325.67,0,0,0,30.54,149.45Z"/><path id="Tracé_821" data-name="Tracé 821" class="cls-3" d="M2.94,109.55a9.4,9.4,0,0,1,7.63,10.9,8.23,8.23,0,0,1-.32,1.3,9.41,9.41,0,0,1-7.64-10.9A9.52,9.52,0,0,1,2.94,109.55Z"/><path id="Tracé_822" data-name="Tracé 822" class="cls-3" d="M20.56,115.11a9.61,9.61,0,0,1-.07,7.6,9.65,9.65,0,0,1-5,5.67,9.61,9.61,0,0,1,.07-7.6A9.61,9.61,0,0,1,20.56,115.11Z"/><path id="Tracé_823" data-name="Tracé 823" class="cls-3" d="M21.17,136.06a9.62,9.62,0,0,1-7.4,1.67,9.58,9.58,0,0,1-6.67-3.62,9.6,9.6,0,0,1,7.39-1.68A9.67,9.67,0,0,1,21.17,136.06Z"/><path id="Tracé_824" data-name="Tracé 824" class="cls-3" d="M28.34,145.34a9.63,9.63,0,0,1-7.4,1.68,9.64,9.64,0,0,1-6.67-3.63,9.62,9.62,0,0,1,7.4-1.67A9.58,9.58,0,0,1,28.34,145.34Z"/><path id="Tracé_825" data-name="Tracé 825" class="cls-3" d="M33.21,152.74a9.62,9.62,0,0,1-7.4,1.67,9.58,9.58,0,0,1-6.67-3.62,9.61,9.61,0,0,1,7.4-1.68A9.64,9.64,0,0,1,33.21,152.74Z"/><path id="Tracé_826" data-name="Tracé 826" class="cls-3" d="M38.61,160.89a9.56,9.56,0,0,1-7.39,1.68A9.58,9.58,0,0,1,24.55,159a9.63,9.63,0,0,1,7.4-1.68A9.65,9.65,0,0,1,38.61,160.89Z"/><path id="Tracé_827" data-name="Tracé 827" class="cls-3" d="M26.81,123.07a9.7,9.7,0,0,1-.07,7.6,9.68,9.68,0,0,1-5,5.68,10.82,10.82,0,0,1,5.12-13.28Z"/><path id="Tracé_828" data-name="Tracé 828" class="cls-3" d="M32.78,131.27a9.69,9.69,0,0,1-.07,7.6,9.63,9.63,0,0,1-5.05,5.67,10.8,10.8,0,0,1,5.12-13.27Z"/><path id="Tracé_829" data-name="Tracé 829" class="cls-3" d="M38.46,139.54a9.66,9.66,0,0,1-.08,7.6,9.65,9.65,0,0,1-5,5.67,10.8,10.8,0,0,1,5.12-13.27Z"/><path id="Tracé_830" data-name="Tracé 830" class="cls-3" d="M44,147.63a10.83,10.83,0,0,1-5.12,13.27A10.8,10.8,0,0,1,44,147.63Z"/></g></g></g><g id="Groupe_164" data-name="Groupe 164"><rect id="Rectangle_313" data-name="Rectangle 313" class="cls-4" x="29.78" y="177.14" width="30.79" height="28.79"/><rect id="Rectangle_314" data-name="Rectangle 314" class="cls-5" x="22.67" y="171.47" width="45.01" height="2.36"/><rect id="Rectangle_315" data-name="Rectangle 315" class="cls-6" x="25.43" y="173.82" width="39.49" height="5.12"/></g></g></g></g></svg>